<?xml version="1.0" standalone="no"?>
<!DOCTYPE svg PUBLIC "-//W3C//DTD SVG 1.1//EN" "http://www.w3.org/Graphics/SVG/1.1/DTD/svg11.dtd" >
<svg xmlns="http://www.w3.org/2000/svg">
<metadata>
Created by FontPrep 20130207 at Mon Feb  1 21:44:38 2016
 By Steve Graegert
Copyright (c) 1988, 1990, 1993, 2003 Linotype Library GmbH, www.linotype.com. All rights reserved. Copyright (c) 1988, 1990, 1993 Adobe Systems Incorporated. All Rights Reserved.
</metadata>
<defs>
<font id="d1a2c6b6bbb42f642f25c6a2c64a65d0" horiz-adv-x='1024' >
  <font-face 
    font-family="HelveticaNeueLTPro-Roman"
    font-weight="400"
    font-stretch="normal"
    units-per-em="2048"
    panose-1="2 11 6 4 2 2 2 2 2 4"
    ascent="1462"
    descent="-586"
    x-height="1059"
    cap-height="1462"
    bbox="-340 -438 2204 1993"
    underline-thickness="102"
    underline-position="-102"
    unicode-range="U+000D-FB02"
  />
<missing-glyph horiz-adv-x="1048" 
d="M1049 1470v-1470h-1049v1470h1049zM946 102v1264h-844v-1264h844zM524 1145q-145 0 -168 -195l-102 17q14 141 88 211t186 70t185 -74q72 -74 71 -195q0 -70 -26 -123t-103 -122q-76 -68 -88 -108t-12 -147h-94l-4 35q1 115 29 169t92 118q63 59 82 94q20 35 20 93
t-46 107q-46 50 -110 50zM455 240v137h114v-137h-114z" />
    <glyph glyph-name="IJ" unicode="IJ" horiz-adv-x="1597" 
d="M1438 1462v-1097q0 -168 -102 -284t-319 -116q-216 0 -327 110t-110 316v90h194v-61q0 -141 51 -216t181 -75t184 68q53 68 53 196v1069h195zM168 0v1462h194v-1462h-194z" />
    <glyph glyph-name="ij" unicode="ij" horiz-adv-x="880" 
d="M741 1059v-1194q0 -270 -254 -271q-49 0 -90 9v149q25 -4 35 -4h37q57 0 78 32q20 32 20 114v1165h174zM741 1462v-213h-174v213h174zM141 0v1059h174v-1059h-174zM315 1462v-213h-174v213h174z" />
    <glyph glyph-name="napostrophe" unicode="&#x22;n" horiz-adv-x="1183" 
d="M29 1462v180h227v-157q0 -84 -54 -127t-149 -43v71q39 10 59 26t21 24q2 8 2 26h-106zM176 0v1059h164v-168h4q109 193 344 192q197 0 281 -101t84 -286v-696h-174v717q1 98 -57 155t-158 58q-154 0 -234 -91t-80 -241v-598h-174z" />
    <glyph glyph-name="fi" unicode="fi" horiz-adv-x="1060" 
d="M203 0v905h-178v154h178v158q0 129 75 195t218 67q59 0 112 -17v-151q-42 14 -104 14t-94 -27t-33 -92v-147h205v-154h-205v-905h-174zM922 1249h-174v213h174v-213zM922 0h-174v1059h174v-1059z" />
    <glyph glyph-name="fl" unicode="fl" horiz-adv-x="1060" 
d="M203 0v905h-178v154h178v158q0 129 75 195t218 67q59 0 112 -17v-151q-42 14 -104 14t-94 -27t-33 -92v-147h205v-154h-205v-905h-174zM748 0v1462h174v-1462h-174z" />
    <glyph glyph-name=".notdef" horiz-adv-x="1048" 
d="M1049 1470v-1470h-1049v1470h1049zM946 102v1264h-844v-1264h844zM524 1145q-145 0 -168 -195l-102 17q14 141 88 211t186 70t185 -74q72 -74 71 -195q0 -70 -26 -123t-103 -122q-76 -68 -88 -108t-12 -147h-94l-4 35q1 115 29 169t92 118q63 59 82 94q20 35 20 93
t-46 107q-46 50 -110 50zM455 240v137h114v-137h-114z" />
    <glyph glyph-name=".null" horiz-adv-x="1024" 
 />
    <glyph glyph-name=".null" horiz-adv-x="1024" 
 />
    <glyph glyph-name="nonmarkingreturn" horiz-adv-x="681" 
 />
    <glyph glyph-name="CR" unicode="&#xd;" horiz-adv-x="0" 
 />
    <glyph glyph-name="space" unicode=" " horiz-adv-x="569" 
 />
    <glyph glyph-name="exclam" unicode="!" horiz-adv-x="530" 
d="M362 1462v-450l-51 -637h-92l-51 637v450h194zM152 0v227h227v-227h-227z" />
    <glyph glyph-name="quotedbl" unicode="&#x22;" horiz-adv-x="872" 
d="M223 934v528h139v-528h-139zM510 934v528h139v-528h-139z" />
    <glyph glyph-name="numbersign" unicode="#" 
d="M70 422v139h219l43 307h-209v140h227l60 419h141l-59 -419h253l60 419h141l-59 -419h182v-140h-201l-43 -307h187v-139h-207l-60 -422h-141l60 422h-254l-60 -422h-141l59 422h-198zM727 868h-254l-43 -307h254z" />
    <glyph glyph-name="dollar" unicode="$" 
d="M514 854v479q-104 -13 -170 -75t-66 -166t59 -155q58 -50 177 -83zM891 391q1 105 -65 159t-199 93v-514q264 18 264 262zM94 1071q0 178 120 296t300 130v135h113v-137q317 -39 403 -405h-174q-41 203 -229 237v-504l123 -32q97 -24 200 -106q55 -44 90 -116t35 -159
q0 -193 -124 -310t-324 -135v-168h-113v168q-205 20 -326 144t-137 337h174q4 -133 83 -215t206 -102v543q-229 57 -325 139q-95 82 -95 260z" />
    <glyph glyph-name="percent" unicode="%" horiz-adv-x="2048" 
d="M385 -45l1102 1524h174l-1100 -1524h-176zM1200 382q0 183 78 299t254 116q328 0 328 -410q0 -176 -81 -294t-251 -118t-249 112t-79 295zM1526 88q180 0 180 298t-176 298t-176 -298t172 -298zM848 1042q0 -176 -81 -294t-251 -117q-170 -1 -249 111t-79 295t78 299
t254 116q328 0 328 -410zM514 743q180 0 180 298t-176 298t-176 -298t172 -298z" />
    <glyph glyph-name="ampersand" unicode="&#x26;" horiz-adv-x="1290" 
d="M530 129q195 0 312 174l-336 404q-125 -70 -190 -142q-64 -72 -64 -183t84 -182t194 -71zM248 1161q0 125 88 213t238 88t254 -79q103 -79 104 -220q0 -219 -275 -379l265 -321q41 115 47 227h166q-13 -125 -31 -188t-68 -172l285 -330h-227l-156 182q-63 -100 -176 -153
t-245 -53t-229 43q-97 44 -142 113q-78 122 -78 261q0 138 89 238t253 186q-136 169 -155 265q-7 36 -7 79zM758 1156q0 63 -46 108t-118 45t-122 -40t-50 -116q0 -38 14 -67t24 -52t49 -67q38 -44 54 -68q59 39 91 64t68 77t36 116z" />
    <glyph glyph-name="quotesingle" unicode="'" horiz-adv-x="569" 
d="M215 934v528h139v-528h-139z" />
    <glyph glyph-name="parenleft" unicode="(" horiz-adv-x="530" 
d="M96 548q0 250 83 496t239 453h133q-270 -427 -270 -947t270 -956h-133q-158 246 -240 476t-82 478z" />
    <glyph glyph-name="parenright" unicode=")" horiz-adv-x="530" 
d="M250 540q0 520 -270 957h133q157 -246 239 -475t82 -478t-82 -496t-239 -454h-133q270 426 270 946z" />
    <glyph glyph-name="asterisk" unicode="*" horiz-adv-x="720" 
d="M412 1462v-231l219 82l41 -99l-223 -77l135 -187l-84 -63l-142 196l-133 -196l-92 63l133 187l-217 77l37 99l217 -82v231h109z" />
    <glyph glyph-name="plus" unicode="+" horiz-adv-x="1228" 
d="M684 1036v-448h446v-139h-446v-449h-139v449h-447v139h447v448h139z" />
    <glyph glyph-name="comma" unicode="," horiz-adv-x="569" 
d="M170 0v227h227v-207q0 -254 -225 -321v102q63 23 94 82t25 117h-121z" />
    <glyph glyph-name="hyphen" unicode="-" horiz-adv-x="796" 
d="M102 487v164h592v-164h-592z" />
    <glyph glyph-name="period" unicode="." horiz-adv-x="569" 
d="M170 0v227h227v-227h-227z" />
    <glyph glyph-name="slash" unicode="/" horiz-adv-x="681" 
d="M-37 -35l606 1532h150l-606 -1532h-150z" />
    <glyph glyph-name="zero" unicode="0" 
d="M92 511q-6 85 -6 231t20 272q20 124 52 190q33 66 84 126q104 122 328 122t329 -124t130 -288q24 -164 24 -304t-6 -225t-34 -194t-77 -177t-142 -116q-92 -48 -224 -48t-225 48t-142 116t-77 178q-28 108 -34 193zM569 129q72 0 125 27q82 42 136 183q38 100 38 376
t-38 375q-52 139 -136 182q-53 26 -125 26t-125 -26q-84 -42 -129 -163t-45 -395t38 -375q54 -141 136 -183q53 -27 125 -27z" />
    <glyph glyph-name="one" unicode="1" 
d="M729 1452v-1452h-174v1040h-377v140q371 0 418 272h133z" />
    <glyph glyph-name="two" unicode="2" 
d="M542 1452q212 0 341 -111t129 -301t-105 -303t-248 -200q-11 -6 -75 -44q-64 -37 -80 -49t-68 -46t-69 -54q-18 -20 -60 -65t-55 -125h745v-154h-948q20 244 139 381q60 70 118 114t210 137t232 179t80 214t-82 201q-80 72 -210 72t-203 -108t-69 -252h-174
q-12 226 114 370t338 144z" />
    <glyph glyph-name="three" unicode="3" 
d="M485 827h37q117 1 197 63t80 175t-72 173q-73 60 -197 60t-194 -89t-70 -226h-174q8 215 123 342t320 127t327 -98t121 -291q0 -94 -56 -171t-145 -118v-4q129 -29 196 -123t66 -229q0 -209 -142 -326t-362 -117t-352 125q-131 125 -127 349h175q4 -145 83 -233
q79 -87 219 -87t231 77t91 206q0 128 -87 202t-222 74q-56 0 -105 -6v147q14 -2 39 -2z" />
    <glyph glyph-name="four" unicode="4" 
d="M858 1452v-958h197v-154h-197v-340h-164v340h-637v168l662 944h139zM694 494v710h-4l-483 -710h487z" />
    <glyph glyph-name="five" unicode="5" 
d="M963 1427v-153h-586l-78 -418l4 -4q91 104 283 104t324 -129t132 -368q0 -199 -134 -341t-373 -143q-195 0 -327 113t-136 303h174q8 -115 92 -189t214 -73q130 0 218 90q88 89 88 243t-91 248t-243 93q-152 0 -264 -137l-149 8l135 753h717z" />
    <glyph glyph-name="six" unicode="6" 
d="M587 780q-142 0 -222 -93t-80 -233t81 -232t218 -93q137 0 216 93q79 92 79 232t-75 233t-217 93zM604 1298q-338 0 -352 -550l4 -5q117 190 362 191q205 0 325 -132t120 -323t-105 -339q-53 -75 -151 -120t-229 -45q-500 0 -500 699q0 321 111 537q123 241 439 241
q164 0 271 -96t123 -275h-174q-12 101 -77 159t-167 58z" />
    <glyph glyph-name="seven" unicode="7" 
d="M1042 1427v-149q-220 -216 -378 -578t-179 -700h-194q25 354 179 682q155 328 394 582h-762v163h940z" />
    <glyph glyph-name="eight" unicode="8" 
d="M872 409q0 119 -88 199t-215 80t-215 -76t-88 -204q0 -127 86 -203t219 -76t217 80t84 200zM133 1081q0 171 125 271q126 100 324 100t308 -108t109 -263q0 -98 -54 -179t-146 -122q258 -82 258 -362q0 -205 -136 -324q-137 -119 -351 -119t-351 115t-137 328
q0 129 65 224q66 95 189 138q-92 37 -148 120q-55 83 -55 181zM572 1298q-110 0 -182 -60t-73 -168q0 -108 73 -168t182 -60t177 62q67 62 67 170t-67 166t-177 58z" />
    <glyph glyph-name="nine" unicode="9" 
d="M546 647q128 -1 210 93t82 231t-80 232t-222 95t-212 -98t-70 -234t82 -227q82 -92 210 -92zM541 129q313 0 327 561l-4 4q-49 -92 -139 -146t-197 -54q-219 0 -339 133q-119 133 -119 347t133 346t344 132q498 0 497 -694q0 -782 -503 -783q-189 1 -307 97t-134 278h174
q10 -102 85 -162t182 -59z" />
    <glyph glyph-name="colon" unicode=":" horiz-adv-x="569" 
d="M170 0v227h227v-227h-227zM397 1059v-228h-227v228h227z" />
    <glyph glyph-name="semicolon" unicode=";" horiz-adv-x="569" 
d="M170 0v227h227v-207q4 -254 -225 -321v102q63 23 94 82t25 117h-121zM397 1059v-228h-227v228h227z" />
    <glyph glyph-name="less" unicode="&#x3c;" horiz-adv-x="1228" 
d="M1135 1053v-140l-871 -395l871 -395v-139l-1041 471v127z" />
    <glyph glyph-name="equal" unicode="=" horiz-adv-x="1228" 
d="M1130 795v-140h-1032v140h1032zM98 242v139h1032v-139h-1032z" />
    <glyph glyph-name="greater" unicode="&#x3e;" horiz-adv-x="1228" 
d="M94 -16v139l871 395l-871 395v140l1041 -471v-127z" />
    <glyph glyph-name="question" unicode="?" 
d="M287 1006h-174q-4 213 121 352q126 139 329 139q203 -1 322 -109t119 -301q0 -81 -29 -149t-60 -104t-99 -105q-68 -68 -104 -113q-60 -77 -63 -180v-80h-174v97q8 158 99 254q40 41 84 86t82 84q89 91 80 216q-9 124 -74 187q-64 63 -190 63q-126 1 -198 -93t-71 -244z
M446 0v227h228v-227h-228z" />
    <glyph glyph-name="at" unicode="@" horiz-adv-x="1638" 
d="M860 1034q-135 0 -231 -141t-97 -287q0 -86 50 -142t127 -56q125 0 221 147t96 289q0 74 -51 132q-52 58 -115 58zM1071 449q0 -63 49 -64q94 0 189 155q94 155 94 316q0 232 -165 380t-390 148q-260 0 -441 -194t-181 -464q0 -272 186 -460t446 -188q144 0 282 68
t226 180h129q-100 -168 -271 -264t-370 -97q-324 0 -546 223q-222 222 -222 542t223 544t525 223q302 0 504 -179q204 -179 204 -452q0 -128 -48 -242q-87 -207 -276 -308q-82 -44 -146 -44q-131 0 -140 134h-6q-121 -138 -252 -138t-213 93t-82 231q0 225 137 403t344 179
q166 0 230 -168l47 129h129l-172 -582q-23 -76 -23 -104z" />
    <glyph glyph-name="A" unicode="A" horiz-adv-x="1327" 
d="M-14 0l571 1462h215l571 -1462h-215l-159 440h-619l-164 -440h-200zM659 1286l-247 -682h495l-243 682h-5z" />
    <glyph glyph-name="B" unicode="B" horiz-adv-x="1402" 
d="M354 670v-506h488q126 0 200 70t74 192q0 244 -317 244h-445zM160 0v1462h530q301 0 387 -53q172 -102 172 -305q0 -240 -217 -328v-4q133 -29 206 -122q73 -92 73 -246t-119 -279t-326 -125h-706zM354 1298v-464h389q164 0 238 57t74 186t-80 175t-232 46h-389z" />
    <glyph glyph-name="C" unicode="C" horiz-adv-x="1478" 
d="M778 1333q-246 0 -370 -171t-125 -430q0 -259 124 -431t373 -172q186 0 298 118t124 304h195q-29 -279 -193 -433t-440 -153q-326 0 -501 213t-175 548t183 553t509 218q238 0 404 -124t198 -351h-194q-32 152 -142 232t-268 79z" />
    <glyph glyph-name="D" unicode="D" horiz-adv-x="1441" 
d="M160 0v1462h502q342 0 522 -174t180 -522q0 -766 -702 -766h-502zM354 1298v-1134h324q53 0 103 7t126 41t129 91t93 170t40 266q0 274 -114 417q-115 142 -373 142h-328z" />
    <glyph glyph-name="E" unicode="E" horiz-adv-x="1251" 
d="M160 0v1462h1009v-164h-815v-464h760v-164h-760v-506h822v-164h-1016z" />
    <glyph glyph-name="F" unicode="F" horiz-adv-x="1175" 
d="M160 0v1462h960v-164h-766v-464h672v-164h-672v-670h-194z" />
    <glyph glyph-name="G" unicode="G" horiz-adv-x="1554" 
d="M784 -35q-210 -1 -372 105t-243 272t-81 360q0 338 182 566t514 229q252 0 421 -120t208 -365h-194q-29 160 -146 240t-289 81q-248 0 -374 -181t-127 -431q0 -250 134 -421t362 -171t356 135q127 135 118 342h-467v164h641v-770h-122l-52 182q-81 -109 -207 -163
t-262 -54z" />
    <glyph glyph-name="H" unicode="H" horiz-adv-x="1478" 
d="M160 0v1462h194v-628h770v628h195v-1462h-195v670h-770v-670h-194z" />
    <glyph glyph-name="I" unicode="I" horiz-adv-x="530" 
d="M168 0v1462h194v-1462h-194z" />
    <glyph glyph-name="J" unicode="J" horiz-adv-x="1062" 
d="M903 1462v-1097q0 -168 -102 -284q-103 -116 -319 -116t-326 110t-111 316v90h195v-61q0 -141 51 -216t181 -75t183 68t54 196v1069h194z" />
    <glyph glyph-name="K" unicode="K" horiz-adv-x="1366" 
d="M160 0v1462h194v-729l742 729h252l-617 -590l641 -872h-246l-528 739l-244 -227v-512h-194z" />
    <glyph glyph-name="L" unicode="L" 
d="M160 0v1462h194v-1298h774v-164h-968z" />
    <glyph glyph-name="M" unicode="M" horiz-adv-x="1783" 
d="M164 0v1462h266l461 -1229l463 1229h266v-1462h-184v1217h-4l-457 -1217h-166l-457 1217h-4v-1217h-184z" />
    <glyph glyph-name="N" unicode="N" horiz-adv-x="1478" 
d="M158 0v1462h207l770 -1186h4v1186h184v-1462h-213l-764 1174h-4v-1174h-184z" />
    <glyph glyph-name="O" unicode="O" horiz-adv-x="1556" 
d="M78 731q0 205 76 376t238 281q163 110 386 110t386 -110t239 -281t76 -376t-76 -376t-239 -281t-386 -109q-223 0 -386 110q-162 111 -238 281t-76 375zM778 129q170 0 288 91t168 223t50 288t-50 288t-168 223t-288 91t-288 -91q-218 -168 -218 -510t218 -512
q118 -91 288 -91z" />
    <glyph glyph-name="P" unicode="P" horiz-adv-x="1327" 
d="M160 0v1462h641q217 0 333 -112t116 -320q0 -206 -116 -320t-333 -112h-447v-598h-194zM354 1298v-536h381q319 -2 320 268q0 268 -320 268h-381z" />
    <glyph glyph-name="Q" unicode="Q" horiz-adv-x="1556" 
d="M769 -35q-214 0 -377 110q-162 111 -238 281t-76 375t76 376t238 281q163 110 386 110t386 -110t239 -281t76 -376q0 -362 -222 -581l193 -154l-98 -123l-224 180q-145 -88 -359 -88zM1284 731q0 343 -218 511q-118 91 -288 91t-288 -91q-216 -166 -217 -509t217 -513
q118 -91 288 -91q104 0 203 41l-162 129l103 119l194 -156q168 168 168 469z" />
    <glyph glyph-name="R" unicode="R" horiz-adv-x="1402" 
d="M354 788h406q156 0 247 56t91 188q0 268 -260 266h-484v-510zM160 0v1462h688q207 0 326 -103t118 -280q0 -139 -62 -237t-192 -133v-4q115 -23 164 -104t59 -276q11 -194 44 -262q16 -35 38 -63h-217q-25 27 -30 83q-6 56 -10 139q-12 329 -143 383q-46 19 -114 20h-475
v-625h-194z" />
    <glyph glyph-name="S" unicode="S" horiz-adv-x="1327" 
d="M643 1333q-141 0 -234 -58t-94 -192q-1 -71 51 -119t135 -73t182 -45t199 -49t184 -71q83 -42 134 -125t51 -215t-90 -234q-165 -187 -481 -187q-262 0 -433 131t-171 385h184q0 -174 123 -263t291 -89t276 61t107 205q0 111 -96 171q-95 60 -233 87t-276 61t-235 121
q-96 87 -96 234q0 209 155 319q156 110 384 110t376 -117q146 -116 154 -347h-184q-33 299 -363 299z" />
    <glyph glyph-name="T" unicode="T" horiz-adv-x="1175" 
d="M492 0v1298h-488v164h1170v-164h-488v-1298h-194z" />
    <glyph glyph-name="U" unicode="U" horiz-adv-x="1478" 
d="M1327 1462v-934q1 -276 -149 -419t-434 -143t-438 138q-155 139 -154 424v934h194v-934q0 -195 104 -297t296 -102t289 102t98 297v934h194z" />
    <glyph glyph-name="V" unicode="V" horiz-adv-x="1251" 
d="M1255 1462l-520 -1462h-221l-516 1462h211l418 -1267h4l422 1267h202z" />
    <glyph glyph-name="W" unicode="W" horiz-adv-x="1896" 
d="M1872 1462l-391 -1462h-203l-334 1229h-4l-338 -1229h-203l-374 1462h198l287 -1216h4l328 1216h211l323 -1216h4l297 1216h195z" />
    <glyph glyph-name="X" unicode="X" horiz-adv-x="1251" 
d="M-2 0l510 752l-481 710h233l365 -571l381 571h217l-484 -710l514 -752h-237l-393 604l-406 -604h-219z" />
    <glyph glyph-name="Y" unicode="Y" horiz-adv-x="1327" 
d="M764 0h-195v598l-565 864h232l438 -696l428 696h221l-559 -864v-598z" />
    <glyph glyph-name="Z" unicode="Z" horiz-adv-x="1251" 
d="M45 0v164l909 1134h-839v164h1069v-164l-908 -1134h932v-164h-1163z" />
    <glyph glyph-name="bracketleft" unicode="[" horiz-adv-x="530" 
d="M530 1497v-139h-219v-1624h219v-140h-383v1903h383z" />
    <glyph glyph-name="backslash" unicode="\" horiz-adv-x="681" 
d="M113 1497l606 -1532h-150l-606 1532h150z" />
    <glyph glyph-name="bracketright" unicode="]" horiz-adv-x="530" 
d="M0 -406v140h219v1624h-219v139h383v-1903h-383z" />
    <glyph glyph-name="asciicircum" unicode="^" horiz-adv-x="1228" 
d="M102 541l447 886h131l446 -886h-143l-371 737l-364 -737h-146z" />
    <glyph glyph-name="underscore" unicode="_" horiz-adv-x="1024" 
d="M0 -256v102h1024v-102h-1024z" />
    <glyph glyph-name="grave" unicode="`" horiz-adv-x="454" 
d="M221 1206l-268 293h223l176 -293h-131z" />
    <glyph glyph-name="a" unicode="a" horiz-adv-x="1099" 
d="M786 369v178q-58 -44 -315 -72q-81 -8 -147 -54t-66 -131t58 -123t147 -38q159 0 241 76t82 164zM944 -25q-147 0 -147 164q-137 -164 -373 -164q-156 0 -253 73t-97 234t108 229q117 73 428 115q95 13 122 32q56 38 56 96q0 176 -244 176t-255 -201h-174q8 184 131 269
t317 85q397 0 398 -290v-545q0 -72 8 -96q9 -24 39 -23q30 0 61 10v-135q-47 -29 -125 -29z" />
    <glyph glyph-name="b" unicode="b" horiz-adv-x="1214" 
d="M956 533q0 169 -84 283t-246 114t-241 -117q-80 -117 -80 -285t83 -284t250 -115q167 0 243 118q75 118 75 286zM137 0v1462h174v-547h4q83 168 327 168t372 -159q127 -160 127 -398t-125 -394t-359 -157q-94 0 -192 40t-150 126h-4v-141h-174z" />
    <glyph glyph-name="c" unicode="c" horiz-adv-x="1099" 
d="M588 930q-174 0 -252 -117t-78 -289t77 -284t232 -111q254 0 291 258h178q-28 -197 -148 -305t-319 -107q-239 1 -367 149t-128 395t129 406t370 158q191 0 315 -91t142 -273h-180q-43 211 -262 211z" />
    <glyph glyph-name="d" unicode="d" horiz-adv-x="1214" 
d="M1077 1462v-1462h-174v143h-4q-83 -168 -327 -168t-371 160q-127 159 -127 397t126 395t357 156q95 0 193 -40t149 -125h4v544h174zM576 930q-166 0 -242 -118t-76 -286t84 -282t246 -115q162 0 242 117q80 116 79 284q0 168 -83 284t-250 116z" />
    <glyph glyph-name="e" unicode="e" horiz-adv-x="1099" 
d="M588 129q229 0 274 207h172q-34 -174 -152 -267t-300 -94q-244 0 -372 152t-136 405q0 240 140 396t357 155q109 0 195 -39t139 -100t88 -143q64 -151 58 -324h-793q-4 -147 80 -247t250 -101zM559 930q-129 0 -211 -86t-90 -213h608q-8 127 -93 213t-214 86z" />
    <glyph glyph-name="f" unicode="f" horiz-adv-x="606" 
d="M203 0v905h-178v154h178v158q0 129 75 195t218 67q59 0 112 -17v-151q-42 14 -104 14t-94 -27t-33 -92v-147h205v-154h-205v-905h-174z" />
    <glyph glyph-name="g" unicode="g" horiz-adv-x="1175" 
d="M557 141q160 0 238 121q77 121 77 284q0 164 -74 274t-230 110q-154 0 -232 -110t-78 -275q0 -230 121 -340q69 -64 178 -64zM1044 1059v-969q0 -262 -120 -391t-364 -129q-243 0 -371 130q-71 73 -74 181h174q4 -86 89 -129t185 -43q317 0 318 402v69h-4
q-43 -92 -133 -142t-197 -50q-225 0 -349 154t-124 371q0 218 105 383q53 85 153 136t231 51q219 0 316 -176h2v152h163z" />
    <glyph glyph-name="h" unicode="h" 
d="M131 0v1462h174v-559h4q39 90 134 135t200 45q197 0 281 -101t84 -286v-696h-174v717q0 98 -58 155t-158 58q-154 0 -234 -91t-79 -241v-598h-174z" />
    <glyph glyph-name="i" unicode="i" horiz-adv-x="454" 
d="M141 0v1059h174v-1059h-174zM315 1462v-213h-174v213h174z" />
    <glyph glyph-name="j" unicode="j" horiz-adv-x="454" 
d="M315 1059v-1194q0 -270 -254 -271q-49 0 -90 9v149q25 -4 35 -4h37q57 0 78 32q20 32 20 114v1165h174zM315 1462v-213h-174v213h174z" />
    <glyph glyph-name="k" unicode="k" horiz-adv-x="1062" 
d="M141 0v1462h174v-866l484 463h233l-420 -385l451 -674h-221l-363 553l-164 -152v-401h-174z" />
    <glyph glyph-name="l" unicode="l" horiz-adv-x="454" 
d="M141 0v1462h174v-1462h-174z" />
    <glyph glyph-name="m" unicode="m" horiz-adv-x="1746" 
d="M131 0v1059h164v-156h4q119 180 346 180t287 -180q53 86 141 133t191 47q352 0 352 -307v-776h-174v694q0 113 -43 174q-43 62 -166 62t-198 -74t-74 -197v-659h-175v694q0 113 -44 174q-44 62 -166 62t-197 -93q-74 -93 -74 -178v-659h-174z" />
    <glyph glyph-name="n" unicode="n" 
d="M131 0v1059h164v-168h4q109 193 344 192q197 0 281 -101t84 -286v-696h-174v717q0 98 -58 155t-158 58q-154 0 -234 -91t-79 -241v-598h-174z" />
    <glyph glyph-name="o" unicode="o" horiz-adv-x="1175" 
d="M588 -25q-244 -1 -379 155t-135 399t135 399t379 156t379 -156t135 -399t-135 -399t-379 -155zM258 528q0 -186 94 -292t236 -106t235 106q94 106 95 292q0 186 -94 294t-236 108t-236 -108t-94 -294z" />
    <glyph glyph-name="p" unicode="p" horiz-adv-x="1214" 
d="M956 533q0 169 -84 283t-246 114t-241 -117q-80 -117 -80 -285t83 -284t250 -115q167 0 243 118q75 118 75 286zM137 -406v1465h174v-144h4q83 168 327 168t372 -159q127 -160 127 -398t-125 -394t-359 -157q-94 0 -192 40t-150 126h-4v-547h-174z" />
    <glyph glyph-name="q" unicode="q" horiz-adv-x="1214" 
d="M1077 1059v-1465h-174v549h-4q-83 -168 -327 -168t-371 160q-127 159 -127 397t126 395t357 156q95 0 193 -40t149 -125h4v141h174zM576 930q-166 0 -242 -118t-76 -286t84 -282t246 -115q162 0 242 117q80 116 79 284q0 168 -83 284t-250 116z" />
    <glyph glyph-name="r" unicode="r" horiz-adv-x="681" 
d="M125 0v1059h164v-223h4q63 131 157 191t232 56v-184q-203 -1 -293 -109t-90 -319v-471h-174z" />
    <glyph glyph-name="s" unicode="s" horiz-adv-x="1024" 
d="M522 129q256 0 256 158q0 63 -51 103t-128 55q-180 35 -334 87q-77 26 -128 90t-51 160q0 146 119 224t295 78t290 -76q114 -74 125 -256h-174q-4 63 -43 105q-66 71 -181 72q-247 2 -247 -134q0 -43 29 -72q56 -56 171 -80t169 -37q236 -54 296 -171q28 -54 28 -126
q-1 -174 -133 -254t-322 -80q-190 -1 -314 87q-123 88 -131 272h175q4 -109 84 -157t200 -48z" />
    <glyph glyph-name="t" unicode="t" horiz-adv-x="645" 
d="M373 1376v-317h211v-154h-211v-657q0 -61 24 -78q25 -16 107 -16h80v-154h-133q-141 0 -197 46q-55 46 -55 185v674h-181v154h181v317h174z" />
    <glyph glyph-name="u" unicode="u" 
d="M1008 1059v-1059h-164v168h-4q-109 -193 -344 -193q-197 -1 -281 101t-84 286v697h174v-717q0 -98 57 -156t158 -57q154 0 234 91t80 241v598h174z" />
    <glyph glyph-name="v" unicode="v" horiz-adv-x="1024" 
d="M995 1059l-387 -1059h-186l-393 1059h194l297 -883h4l289 883h182z" />
    <glyph glyph-name="w" unicode="w" horiz-adv-x="1552" 
d="M1518 1059l-338 -1059h-185l-215 842h-4l-213 -842h-188l-340 1059h192l240 -866h4l213 866h190l222 -866h4l237 866h181z" />
    <glyph glyph-name="x" unicode="x" horiz-adv-x="1060" 
d="M18 0l398 557l-369 502h223l254 -371l264 371h209l-364 -488l409 -571h-223l-295 438l-295 -438h-211z" />
    <glyph glyph-name="y" unicode="y" horiz-adv-x="1024" 
d="M1008 1059l-461 -1200q-63 -158 -128 -220q-65 -63 -158 -63t-142 18v160q78 -25 102 -24q94 0 144 96l71 180l-420 1053h197l309 -866h4l297 866h185z" />
    <glyph glyph-name="z" unicode="z" horiz-adv-x="983" 
d="M45 0v133l639 772h-598v154h823v-119l-647 -786h676v-154h-893z" />
    <glyph glyph-name="braceleft" unicode="{" horiz-adv-x="681" 
d="M633 1497v-123h-103q-98 0 -98 -176v-375q0 -125 -61 -193t-117 -81v-6q58 -8 118 -74t60 -201v-374q0 -176 98 -177h103v-123h-144q-85 0 -153 73t-68 196v373q0 108 -50 174t-120 65v139q68 0 119 69t51 173v373q0 123 69 195t152 73h144z" />
    <glyph glyph-name="bar" unicode="|" horiz-adv-x="454" 
d="M158 -438v2048h139v-2048h-139z" />
    <glyph glyph-name="braceright" unicode="}" horiz-adv-x="681" 
d="M49 -406v123h103q98 0 98 177v374q0 125 61 194t117 81v6q-57 8 -118 74q-60 66 -60 200v371q0 180 -98 180h-103v123h144q85 0 153 -73t68 -195v-373q0 -110 50 -176t120 -66v-139q-68 -1 -119 -69t-51 -170v-373q0 -123 -69 -196t-152 -73h-144z" />
    <glyph glyph-name="asciitilde" unicode="~" horiz-adv-x="1228" 
d="M828 375q-90 -1 -214 73q-126 74 -226 74t-173 -155l-74 102q86 176 256 176q108 0 298 -99q153 -79 209 -27q23 21 36 32t27 33q15 22 29 42t18 27l73 -102q-55 -84 -112 -130t-147 -46z" />
    <glyph glyph-name="Euro" 
d="M753 1327q-151 0 -251 -131q-82 -106 -115 -274h580l-56 -125h-538q-2 -10 -2 -33v-53q0 -14 2 -21h510l-54 -125h-446q68 -440 389 -440q98 0 162 33t153 114v-215q-139 -90 -315 -90q-502 0 -588 598h-157l55 125h94q-2 6 -2 21v55q0 20 2 31h-149l53 125h110
q49 254 187 397q154 166 395 166q187 0 371 -129l-94 -170q-145 141 -296 141z" />
    <glyph glyph-name="Euro" unicode="&#x20ac;" 
d="M753 1327q-151 0 -251 -131q-82 -106 -115 -274h580l-56 -125h-538q-2 -10 -2 -33v-53q0 -14 2 -21h510l-54 -125h-446q68 -440 389 -440q98 0 162 33t153 114v-215q-139 -90 -315 -90q-502 0 -588 598h-157l55 125h94q-2 6 -2 21v55q0 20 2 31h-149l53 125h110
q49 254 187 397q154 166 395 166q187 0 371 -129l-94 -170q-145 141 -296 141z" />
    <glyph glyph-name="uni00A0" unicode="&#xa0;" horiz-adv-x="569" 
 />
    <glyph glyph-name="exclamdown" unicode="&#xa1;" horiz-adv-x="530" 
d="M168 -406v451l51 637h92l51 -637v-451h-194zM379 1059v-228h-227v228h227z" />
    <glyph glyph-name="cent" unicode="&#xa2;" 
d="M557 129v801q-147 -18 -213 -132t-66 -276t70 -272t209 -121zM557 -238v213q-219 8 -341 158t-122 382t121 392t342 176v195h80v-195q174 -4 284 -94t132 -270h-179q-20 96 -80 151t-157 60v-801q209 20 248 258h174q-18 -166 -130 -289t-292 -123v-213h-80z" />
    <glyph glyph-name="sterling" unicode="&#xa3;" 
d="M96 670v92h119q-96 160 -96 334t136 287q136 114 349 114t341 -134t124 -394h-174q-10 375 -299 374q-123 -1 -208 -77t-85 -191q0 -83 28 -153t79 -160h325v-92h-280q41 -78 41 -149t-18 -126t-58 -105q-39 -50 -72 -80t-90 -79l4 -4q139 59 215 59t195 -30
q125 -37 172 -37q86 0 182 76l88 -136q-109 -94 -299 -94q-72 0 -202 42t-222 42t-198 -72l-97 136q96 67 161 161t65 188t-52 208h-174z" />
    <glyph glyph-name="currency" unicode="&#xa4;" 
d="M1081 723q0 -186 -106 -311l112 -115l-96 -96l-114 118q-123 -113 -307 -113t-308 111l-112 -118l-99 98l113 119q-106 128 -106 310t110 292l-117 119l101 100l114 -115q127 104 305 104t297 -102l117 115l102 -104l-112 -113q106 -113 106 -299zM572 1073
q-142 0 -241 -103t-99 -254t98 -253q100 -103 242 -103t238 104t97 252q0 148 -96 253q-97 104 -239 104z" />
    <glyph glyph-name="yen" unicode="&#xa5;" 
d="M475 0v356h-289v123h289v86l-37 68h-252v123h189l-375 706h223l357 -723l346 723h213l-365 -706h191v-123h-258l-37 -68v-86h295v-123h-295v-356h-195z" />
    <glyph glyph-name="brokenbar" unicode="&#xa6;" horiz-adv-x="454" 
d="M158 -182v512h139v-512h-139zM297 1354v-512h-139v512h139z" />
    <glyph glyph-name="section" unicode="&#xa7;" 
d="M240 682q0 -55 13 -80q13 -24 19 -38t24 -29q18 -17 28 -25q8 -8 32 -24t44 -30q21 -15 120 -67q99 -51 221 -135q147 61 148 190q1 53 -23 83q-24 31 -34 43t-40 35q-30 22 -58 43t-156 95t-189 117q-63 -20 -106 -72t-43 -106zM576 1343q-90 0 -145 -45
q-54 -45 -54 -131t86 -149t196 -121t172 -98q155 -99 199 -198q27 -60 27 -146q1 -86 -59 -168t-154 -119q121 -90 121 -240t-108 -242q-109 -92 -283 -92t-283 104t-121 284h174q2 -104 66 -169t156 -65q94 0 156 45t62 125q0 89 -91 159q-26 19 -43 33t-51 32t-53 30
q-22 12 -149 82q-237 128 -297 266q-28 66 -28 153t63 169t156 106q-94 100 -94 217q0 152 113 242q114 90 276 90t262 -96q100 -97 104 -283h-174q-2 98 -57 162t-145 63z" />
    <glyph glyph-name="dieresis" unicode="&#xa8;" horiz-adv-x="454" 
d="M328 1233v213h184v-213h-184zM-57 1233v213h184v-213h-184z" />
    <glyph glyph-name="copyright" unicode="&#xa9;" horiz-adv-x="1638" 
d="M49 733q0 324 227 544q226 220 544 220t544 -220t225 -544q0 -324 -225 -546q-226 -222 -544 -222t-545 222q-226 222 -226 546zM1450 732q0 278 -181 464q-181 188 -449 188t-450 -188t-182 -464q0 -278 182 -466t449 -188q268 0 450 188q181 188 181 466zM846 262
q-205 0 -330 132t-125 339t121 336t328 129q152 0 256 -81t129 -230h-129q-16 88 -85 143t-169 55q-148 0 -230 -98t-82 -250t86 -257t230 -105q100 -1 168 57t82 152h131q-33 -146 -136 -234t-245 -88z" />
    <glyph glyph-name="ordfeminine" unicode="&#xaa;" horiz-adv-x="774" 
d="M649 1274v-328q0 -66 29 -65h22q10 0 23 4v-90q-43 -16 -88 -17q-98 0 -105 94q-88 -94 -239 -94q-104 0 -172 46t-68 140t71 143q71 48 175 56q154 17 195 31q40 14 40 65t-42 71t-115 20q-162 0 -170 -115h-123q4 111 89 164t212 53q266 0 266 -178zM306 881
q116 0 168 43t52 98v96q-25 -17 -107 -30q-81 -13 -122 -21q-107 -21 -107 -103q0 -83 116 -83z" />
    <glyph glyph-name="guillemotleft" unicode="&#xab;" horiz-adv-x="948" 
d="M815 233l-311 246v180l311 246v-176l-205 -160l205 -159v-177zM414 233l-312 246v180l312 246v-176l-205 -160l205 -159v-177z" />
    <glyph glyph-name="logicalnot" unicode="&#xac;" horiz-adv-x="1228" 
d="M1130 795v-572h-139v432h-893v140h1032z" />
    <glyph glyph-name="uni00AD" unicode="&#xad;" horiz-adv-x="796" 
d="M102 487v164h592v-164h-592z" />
    <glyph glyph-name="registered" unicode="&#xae;" horiz-adv-x="1638" 
d="M49 733q0 324 227 544q226 220 544 220t544 -220t225 -544q0 -324 -225 -546q-226 -222 -544 -222t-545 222q-226 222 -226 546zM1450 732q0 278 -181 464q-181 188 -449 188t-450 -186t-182 -466q0 -278 182 -466t449 -188q268 0 450 188q181 188 181 466zM522 285v895
h346q313 0 314 -256q0 -219 -236 -244l256 -395h-149l-244 385h-147v-385h-140zM662 1067v-285h145q146 0 190 35q45 35 45 113q0 137 -196 137h-184z" />
    <glyph glyph-name="macron" unicode="&#xaf;" horiz-adv-x="454" 
d="M-121 1284v113h699v-113h-699z" />
    <glyph glyph-name="degree" unicode="&#xb0;" horiz-adv-x="819" 
d="M115 1156q0 124 86 210t208 86q123 0 209 -87t86 -209t-86 -208t-210 -86t-208 85q-85 85 -85 209zM217 1157q0 -76 53 -134q54 -58 140 -58t139 58t53 134t-53 134q-53 59 -139 59t-140 -58t-53 -135z" />
    <glyph glyph-name="plusminus" unicode="&#xb1;" horiz-adv-x="1228" 
d="M98 555v139h447v340h139v-340h446v-139h-446v-342h-139v342h-447zM98 0v139h1032v-139h-1032z" />
    <glyph glyph-name="twosuperior" unicode="&#xb2;" horiz-adv-x="681" 
d="M184 1137h-139q0 141 86 228t221 87t222 -70q88 -70 88 -180t-62 -177t-170 -128q-23 -14 -113 -65t-116 -86q-27 -36 -33 -60h481v-113h-620q8 151 84 229q41 42 75 66t134 84t150 109t50 125t-48 114t-128 39q-80 0 -121 -57t-41 -145z" />
    <glyph glyph-name="threesuperior" unicode="&#xb3;" horiz-adv-x="681" 
d="M270 977v102h49q74 0 122 33t48 96q0 64 -44 98q-43 34 -119 34t-117 -49q-41 -48 -41 -128h-139q8 135 88 212t214 77t216 -62t82 -178q0 -57 -40 -103t-100 -71v-4q87 -16 133 -71t46 -138q0 -129 -96 -197t-238 -69q-141 0 -234 76q-92 76 -92 213h139
q4 -176 189 -176q82 0 137 40t55 114t-55 112q-55 39 -135 39h-68z" />
    <glyph glyph-name="acute" unicode="&#xb4;" horiz-adv-x="454" 
d="M102 1206l177 293h223l-269 -293h-131z" />
    <glyph glyph-name="mu" unicode="&#xb5;" 
d="M1008 1059v-1059h-164v168h-4q-109 -193 -344 -193q-137 0 -187 78h-4v-459h-174v1465h174v-717q0 -98 57 -156t158 -57q154 0 234 91t80 241v598h174z" />
    <glyph glyph-name="paragraph" unicode="&#xb6;" horiz-adv-x="1228" 
d="M1055 1462v-1779h-140v1667h-249v-1667h-140v976q-186 0 -307 110t-121 271q0 201 125 312t342 110h490z" />
    <glyph glyph-name="periodcentered" unicode="&#xb7;" horiz-adv-x="569" 
d="M154 637q0 53 39 92t92 39t92 -39t39 -90t-40 -92t-91 -41t-91 39t-40 92z" />
    <glyph glyph-name="cedilla" unicode="&#xb8;" horiz-adv-x="454" 
d="M164 -328q134 0 135 64q0 29 -27 46q-28 17 -66 17t-87 -16l-35 57l125 160h86l-86 -109l4 -4q20 15 80 15q59 0 109 -39t50 -122t-76 -127q-77 -44 -166 -44t-200 39l37 90q61 -27 117 -27z" />
    <glyph glyph-name="onesuperior" unicode="&#xb9;" horiz-adv-x="681" 
d="M510 1452v-879h-139v631h-236v103q238 0 273 145h102z" />
    <glyph glyph-name="ordmasculine" unicode="&#xba;" horiz-adv-x="786" 
d="M51 1110q0 148 91 246q91 96 252 96t251 -95t90 -246t-88 -242t-250 -91t-254 92t-92 240zM596 1126q0 116 -60 170t-146 54q-87 0 -143 -60q-57 -60 -57 -170q0 -108 50 -174t155 -65q201 -1 201 245z" />
    <glyph glyph-name="guillemotright" unicode="&#xbb;" horiz-adv-x="948" 
d="M133 905l311 -246v-180l-311 -246v177l205 159l-205 160v176zM535 905l311 -246v-180l-311 -246v177l204 159l-204 160v176z" />
    <glyph glyph-name="onequarter" unicode="&#xbc;" horiz-adv-x="1708" 
d="M1481 879v-570h123v-112h-123v-197h-127v197h-408v118l430 564h105zM1354 309v396h-4l-303 -396h307zM307 -57l891 1542h131l-891 -1542h-131zM449 1452v-879h-140v631h-235v103q240 0 272 145h103z" />
    <glyph glyph-name="onehalf" unicode="&#xbd;" horiz-adv-x="1708" 
d="M276 -57l891 1542h131l-890 -1542h-132zM449 1452v-879h-140v631h-235v103q240 0 272 145h103zM1167 563h-139q0 141 86 229t221 87q135 0 223 -70t87 -180q1 -110 -61 -177t-171 -128q-23 -14 -69 -40q-137 -79 -170 -124q-16 -23 -23 -47h481v-113h-620q8 152 78 223
q70 70 192 142q123 73 173 122t50 125t-48 116q-48 38 -128 38t-121 -58t-41 -145z" />
    <glyph glyph-name="threequarters" unicode="&#xbe;" horiz-adv-x="1708" 
d="M1516 879v-570h122v-112h-122v-197h-127v197h-408v118l430 564h105zM1391 301v395h-5l-303 -395h308zM440 -57l891 1542h131l-891 -1542h-131zM362 977v102h50q74 0 122 33t48 96q0 64 -44 98t-120 34t-117 -49q-41 -48 -41 -128h-139q8 135 88 212t214 77t216 -62
t82 -178q0 -57 -40 -103t-99 -71v-4q88 -16 133 -71t45 -138q0 -129 -96 -197t-238 -69q-142 0 -233 76q-92 76 -93 213h140q4 -176 188 -176q82 0 137 40t55 114t-54 112q-56 39 -136 39h-68z" />
    <glyph glyph-name="questiondown" unicode="&#xbf;" 
d="M856 61h174q4 -213 -122 -352t-329 -139t-321 108t-119 302q0 114 45 190t128 155t119 125q61 77 63 181v63h174v-80q-8 -160 -100 -254q-40 -41 -84 -86t-82 -84q-88 -90 -79 -215t73 -188t190 -63t198 94t72 243zM690 1059v-228h-227v228h227z" />
    <glyph glyph-name="Agrave" unicode="&#xc0;" horiz-adv-x="1327" 
d="M633 1595l-268 293h223l176 -293h-131zM-14 0l571 1462h215l571 -1462h-215l-159 440h-619l-164 -440h-200zM659 1286l-247 -682h495l-243 682h-5z" />
    <glyph glyph-name="Aacute" unicode="&#xc1;" horiz-adv-x="1327" 
d="M565 1595l176 293h224l-269 -293h-131zM-14 0l571 1462h215l571 -1462h-215l-159 440h-619l-164 -440h-200zM659 1286l-247 -682h495l-243 682h-5z" />
    <glyph glyph-name="Acircumflex" unicode="&#xc2;" horiz-adv-x="1327" 
d="M360 1595l211 293h191l213 -293h-172l-141 197l-144 -197h-158zM-14 0l571 1462h215l571 -1462h-215l-159 440h-619l-164 -440h-200zM659 1286l-247 -682h495l-243 682h-5z" />
    <glyph glyph-name="Atilde" unicode="&#xc3;" horiz-adv-x="1327" 
d="M824 1630q-76 0 -167 41q-104 39 -139 39t-56 -20t-40 -66h-107q47 225 217 225q56 0 150 -41t135 -41q67 1 94 91h107q-12 -90 -66 -162q-52 -66 -128 -66zM-14 0l571 1462h215l571 -1462h-215l-159 440h-619l-164 -440h-200zM659 1286l-247 -682h495l-243 682h-5z" />
    <glyph glyph-name="Adieresis" unicode="&#xc4;" horiz-adv-x="1327" 
d="M764 1624v213h184v-213h-184zM379 1624v213h184v-213h-184zM-14 0l571 1462h215l571 -1462h-215l-159 440h-619l-164 -440h-200zM659 1286l-247 -682h495l-243 682h-5z" />
    <glyph glyph-name="Aring" unicode="&#xc5;" horiz-adv-x="1327" 
d="M-14 0l571 1462h215l571 -1462h-215l-159 440h-619l-164 -440h-200zM659 1286l-247 -682h495l-243 682h-5zM526 1761q0 -59 39 -99t99 -40t98 40q39 40 39 99t-39 99t-98 41q-59 0 -99 -40q-39 -41 -39 -100zM432 1763q0 94 69 162t163 68t162 -68t69 -162
q0 -93 -69 -161q-68 -68 -162 -68t-163 68t-69 161z" />
    <glyph glyph-name="AE" unicode="&#xc6;" horiz-adv-x="1896" 
d="M1821 1462v-164h-719v-464h676v-164h-676v-506h731v-164h-915v426h-504l-209 -426h-219l739 1462h1096zM918 1298h-84l-345 -708h429v708z" />
    <glyph glyph-name="Ccedilla" unicode="&#xc7;" horiz-adv-x="1478" 
d="M778 1333q-246 0 -370 -171t-125 -430q0 -259 124 -431t373 -172q186 0 298 118t124 304h195q-29 -272 -189 -426t-428 -158l-59 -76l4 -4q20 15 80 15q59 0 109 -39t50 -122t-76 -127q-77 -44 -166 -44t-200 39l37 90q61 -27 117 -27q134 0 135 64q0 29 -27 46
q-28 17 -66 17t-87 -16l-35 57l100 129q-296 25 -452 233t-156 534t183 543q183 218 509 218q238 0 404 -124t198 -351h-194q-32 152 -142 232t-268 79z" />
    <glyph glyph-name="Egrave" unicode="&#xc8;" horiz-adv-x="1251" 
d="M612 1595l-268 293h223l176 -293h-131zM160 0v1462h1009v-164h-815v-464h760v-164h-760v-506h822v-164h-1016z" />
    <glyph glyph-name="Eacute" unicode="&#xc9;" horiz-adv-x="1251" 
d="M582 1595l176 293h223l-268 -293h-131zM160 0v1462h1009v-164h-815v-464h760v-164h-760v-506h822v-164h-1016z" />
    <glyph glyph-name="Ecircumflex" unicode="&#xca;" horiz-adv-x="1251" 
d="M358 1595l211 293h191l213 -293h-172l-142 197l-143 -197h-158zM160 0v1462h1009v-164h-815v-464h760v-164h-760v-506h822v-164h-1016z" />
    <glyph glyph-name="Edieresis" unicode="&#xcb;" horiz-adv-x="1251" 
d="M772 1622v213h184v-213h-184zM387 1622v213h184v-213h-184zM160 0v1462h1009v-164h-815v-464h760v-164h-760v-506h822v-164h-1016z" />
    <glyph glyph-name="Igrave" unicode="&#xcc;" horiz-adv-x="530" 
d="M231 1595l-268 293h223l176 -293h-131zM168 0v1462h194v-1462h-194z" />
    <glyph glyph-name="Iacute" unicode="&#xcd;" horiz-adv-x="530" 
d="M170 1595l176 293h223l-268 -293h-131zM168 0v1462h194v-1462h-194z" />
    <glyph glyph-name="Icircumflex" unicode="&#xce;" horiz-adv-x="530" 
d="M-33 1595l211 293h191l213 -293h-172l-142 197l-143 -197h-158zM168 0v1462h194v-1462h-194z" />
    <glyph glyph-name="Idieresis" unicode="&#xcf;" horiz-adv-x="530" 
d="M367 1622v213h184v-213h-184zM-18 1622v213h184v-213h-184zM168 0v1462h194v-1462h-194z" />
    <glyph glyph-name="Eth" unicode="&#xd0;" horiz-adv-x="1441" 
d="M160 0v694h-144v140h144v628h502q342 0 522 -174t180 -522q0 -766 -702 -766h-502zM354 1298v-464h439v-140h-439v-530h324q53 0 103 7t126 41t129 91t93 170t40 266q0 274 -114 417q-115 142 -373 142h-328z" />
    <glyph glyph-name="Ntilde" unicode="&#xd1;" horiz-adv-x="1478" 
d="M910 1630q-76 0 -167 41q-104 39 -139 39t-56 -20t-40 -66h-107q47 225 217 225q56 0 150 -41t135 -41q67 1 94 91h107q-12 -90 -66 -162q-52 -66 -128 -66zM158 0v1462h207l770 -1186h4v1186h184v-1462h-213l-764 1174h-4v-1174h-184z" />
    <glyph glyph-name="Ograve" unicode="&#xd2;" horiz-adv-x="1556" 
d="M741 1595l-268 293h223l176 -293h-131zM78 731q0 205 76 376t238 281q163 110 386 110t386 -110t239 -281t76 -376t-76 -376t-239 -281t-386 -109q-223 0 -386 110q-162 111 -238 281t-76 375zM778 129q170 0 288 91t168 223t50 288t-50 288t-168 223t-288 91t-288 -91
q-218 -168 -218 -510t218 -512q118 -91 288 -91z" />
    <glyph glyph-name="Oacute" unicode="&#xd3;" horiz-adv-x="1556" 
d="M666 1595l176 293h223l-268 -293h-131zM78 731q0 205 76 376t238 281q163 110 386 110t386 -110t239 -281t76 -376t-76 -376t-239 -281t-386 -109q-223 0 -386 110q-162 111 -238 281t-76 375zM778 129q170 0 288 91t168 223t50 288t-50 288t-168 223t-288 91t-288 -91
q-218 -168 -218 -510t218 -512q118 -91 288 -91z" />
    <glyph glyph-name="Ocircumflex" unicode="&#xd4;" horiz-adv-x="1556" 
d="M475 1595l211 293h191l213 -293h-172l-142 197l-143 -197h-158zM78 731q0 205 76 376t238 281q163 110 386 110t386 -110t239 -281t76 -376t-76 -376t-239 -281t-386 -109q-223 0 -386 110q-162 111 -238 281t-76 375zM778 129q170 0 288 91t168 223t50 288t-50 288
t-168 223t-288 91t-288 -91q-218 -168 -218 -510t218 -512q118 -91 288 -91z" />
    <glyph glyph-name="Otilde" unicode="&#xd5;" horiz-adv-x="1556" 
d="M940 1630q-76 0 -166 41q-104 39 -139 39t-57 -20t-39 -66h-107q47 225 217 225q57 0 151 -41t134 -41q67 1 94 91h107q-12 -90 -66 -162q-53 -66 -129 -66zM78 731q0 205 76 376t238 281q163 110 386 110t386 -110t239 -281t76 -376t-76 -376t-239 -281t-386 -109
q-223 0 -386 110q-162 111 -238 281t-76 375zM778 129q170 0 288 91t168 223t50 288t-50 288t-168 223t-288 91t-288 -91q-218 -168 -218 -510t218 -512q118 -91 288 -91z" />
    <glyph glyph-name="Odieresis" unicode="&#xd6;" horiz-adv-x="1556" 
d="M881 1622v213h184v-213h-184zM496 1622v213h184v-213h-184zM78 731q0 205 76 376t238 281q163 110 386 110t386 -110t239 -281t76 -376t-76 -376t-239 -281t-386 -109q-223 0 -386 110q-162 111 -238 281t-76 375zM778 129q170 0 288 91t168 223t50 288t-50 288t-168 223
t-288 91t-288 -91q-218 -168 -218 -510t218 -512q118 -91 288 -91z" />
    <glyph glyph-name="multiply" unicode="&#xd7;" horiz-adv-x="1228" 
d="M244 49l-99 98l373 373l-371 369l99 98l370 -369l369 369l98 -98l-368 -369l370 -373l-98 -98l-371 373z" />
    <glyph glyph-name="Oslash" unicode="&#xd8;" horiz-adv-x="1556" 
d="M375 348l755 834q-131 152 -352 151q-170 0 -288 -91q-216 -166 -218 -511q1 -227 103 -383zM778 129q170 0 288 91q218 168 218 511q0 221 -98 377l-756 -834q129 -145 348 -145zM1479 731q0 -205 -76 -376t-239 -281t-386 -109q-283 0 -469 176l-166 -182l-67 61
l172 189q-170 207 -170 522q0 205 76 376t238 281q163 110 386 109q291 0 475 -180l162 178l66 -61l-168 -185q166 -209 166 -518z" />
    <glyph glyph-name="Ugrave" unicode="&#xd9;" horiz-adv-x="1478" 
d="M705 1595l-269 293h223l177 -293h-131zM1327 1462v-934q1 -276 -149 -419t-434 -143t-438 138q-155 139 -154 424v934h194v-934q0 -195 104 -297t296 -102t289 102t98 297v934h194z" />
    <glyph glyph-name="Uacute" unicode="&#xda;" horiz-adv-x="1478" 
d="M645 1595l176 293h223l-268 -293h-131zM1327 1462v-934q1 -276 -149 -419t-434 -143t-438 138q-155 139 -154 424v934h194v-934q0 -195 104 -297t296 -102t289 102t98 297v934h194z" />
    <glyph glyph-name="Ucircumflex" unicode="&#xdb;" horiz-adv-x="1478" 
d="M440 1595l211 293h191l213 -293h-172l-142 197l-143 -197h-158zM1327 1462v-934q1 -276 -149 -419t-434 -143t-438 138q-155 139 -154 424v934h194v-934q0 -195 104 -297t296 -102t289 102t98 297v934h194z" />
    <glyph glyph-name="Udieresis" unicode="&#xdc;" horiz-adv-x="1478" 
d="M842 1622v213h184v-213h-184zM457 1622v213h184v-213h-184zM1327 1462v-934q1 -276 -149 -419t-434 -143t-438 138q-155 139 -154 424v934h194v-934q0 -195 104 -297t296 -102t289 102t98 297v934h194z" />
    <glyph glyph-name="Yacute" unicode="&#xdd;" horiz-adv-x="1327" 
d="M602 1595l176 293h223l-268 -293h-131zM764 0h-195v598l-565 864h232l438 -696l428 696h221l-559 -864v-598z" />
    <glyph glyph-name="Thorn" unicode="&#xde;" horiz-adv-x="1327" 
d="M354 0h-194v1462h194v-233h447q217 0 333 -114q116 -115 116 -321t-116 -319t-333 -110h-447v-365zM354 1065v-537h381q319 -2 320 267q0 270 -320 270h-381z" />
    <glyph glyph-name="germandbls" unicode="&#xdf;" 
d="M131 0v1087q0 184 111 297t286 113q176 0 304 -95t129 -263q0 -250 -213 -318v-4q134 -17 206 -121t72 -245q0 -211 -132 -343t-341 -133q-47 0 -88 9v151q23 -6 70 -6q141 0 224 82t83 217q0 186 -91 246t-286 61v139q135 -8 223 48t88 190q0 96 -65 164t-173 68
t-170 -64q-62 -63 -63 -223v-1057h-174z" />
    <glyph glyph-name="agrave" unicode="&#xe0;" horiz-adv-x="1099" 
d="M555 1206l-268 293h223l176 -293h-131zM786 369v178q-58 -44 -315 -72q-81 -8 -147 -54t-66 -131t58 -123t147 -38q159 0 241 76t82 164zM944 -25q-147 0 -147 164q-137 -164 -373 -164q-156 0 -253 73t-97 234t108 229q117 73 428 115q95 13 122 32q56 38 56 96
q0 176 -244 176t-255 -201h-174q8 184 131 269t317 85q397 0 398 -290v-545q0 -72 8 -96q9 -24 39 -23q30 0 61 10v-135q-47 -29 -125 -29z" />
    <glyph glyph-name="aacute" unicode="&#xe1;" horiz-adv-x="1099" 
d="M475 1206l176 293h223l-268 -293h-131zM786 369v178q-58 -44 -315 -72q-81 -8 -147 -54t-66 -131t58 -123t147 -38q159 0 241 76t82 164zM944 -25q-147 0 -147 164q-137 -164 -373 -164q-156 0 -253 73t-97 234t108 229q117 73 428 115q95 13 122 32q56 38 56 96
q0 176 -244 176t-255 -201h-174q8 184 131 269t317 85q397 0 398 -290v-545q0 -72 8 -96q9 -24 39 -23q30 0 61 10v-135q-47 -29 -125 -29z" />
    <glyph glyph-name="acircumflex" unicode="&#xe2;" horiz-adv-x="1099" 
d="M254 1206l211 293h190l213 -293h-172l-141 197l-143 -197h-158zM786 369v178q-58 -44 -315 -72q-81 -8 -147 -54t-66 -131t58 -123t147 -38q159 0 241 76t82 164zM944 -25q-147 0 -147 164q-137 -164 -373 -164q-156 0 -253 73t-97 234t108 229q117 73 428 115
q95 13 122 32q56 38 56 96q0 176 -244 176t-255 -201h-174q8 184 131 269t317 85q397 0 398 -290v-545q0 -72 8 -96q9 -24 39 -23q30 0 61 10v-135q-47 -29 -125 -29z" />
    <glyph glyph-name="atilde" unicode="&#xe3;" horiz-adv-x="1099" 
d="M722 1241q-76 0 -167 41q-104 39 -139 39q-34 -1 -56 -21t-41 -65h-106q47 225 217 225q56 0 150 -41t135 -41q67 0 94 90h106q-12 -90 -65 -161q-52 -66 -128 -66zM786 369v178q-58 -44 -315 -72q-81 -8 -147 -54t-66 -131t58 -123t147 -38q159 0 241 76t82 164z
M944 -25q-147 0 -147 164q-137 -164 -373 -164q-156 0 -253 73t-97 234t108 229q117 73 428 115q95 13 122 32q56 38 56 96q0 176 -244 176t-255 -201h-174q8 184 131 269t317 85q397 0 398 -290v-545q0 -72 8 -96q9 -24 39 -23q30 0 61 10v-135q-47 -29 -125 -29z" />
    <glyph glyph-name="adieresis" unicode="&#xe4;" horiz-adv-x="1099" 
d="M786 369v178q-58 -44 -315 -72q-81 -8 -147 -54t-66 -131t58 -123t147 -38q159 0 241 76t82 164zM944 -25q-147 0 -147 164q-137 -164 -373 -164q-156 0 -253 73t-97 234t108 229q117 73 428 115q95 13 122 32q56 38 56 96q0 176 -244 176t-255 -201h-174q8 184 131 269
t317 85q397 0 398 -290v-545q0 -72 8 -96q9 -24 39 -23q30 0 61 10v-135q-47 -29 -125 -29zM657 1233v213h185v-213h-185zM272 1233v213h185v-213h-185z" />
    <glyph glyph-name="aring" unicode="&#xe5;" horiz-adv-x="1099" 
d="M422 1380q0 -59 39 -99t98 -40t98 40t39 99q0 60 -39 100t-98 40t-98 -40t-39 -100zM328 1382q0 94 68 162q69 68 163 68t163 -68t69 -162t-69 -162t-163 -67q-95 -1 -163 67t-68 162zM786 369v178q-58 -44 -315 -72q-81 -8 -147 -54t-66 -131t58 -123t147 -38
q159 0 241 76t82 164zM944 -25q-147 0 -147 164q-137 -164 -373 -164q-156 0 -253 73t-97 234t108 229q117 73 428 115q95 13 122 32q56 38 56 96q0 176 -244 176t-255 -201h-174q8 184 131 269t317 85q397 0 398 -290v-545q0 -72 8 -96q9 -24 39 -23q30 0 61 10v-135
q-47 -29 -125 -29z" />
    <glyph glyph-name="ae" unicode="&#xe6;" horiz-adv-x="1781" 
d="M956 631h592q-4 131 -81 215t-213 84t-217 -84t-81 -215zM258 290q0 -85 58 -123t147 -38q158 0 244 77t86 163v178q-58 -35 -233 -58t-238 -68q-64 -46 -64 -131zM1733 477h-777q0 -150 82 -249t236 -99q102 0 173 52t95 153h178q-38 -172 -158 -265t-300 -94
q-289 0 -383 207q-113 -207 -447 -207q-162 0 -260 73t-98 234t113 232q87 54 245 84q64 13 169 30t125 31q21 13 43 31t24 76q0 96 -67 130t-173 34q-254 0 -264 -201h-174q8 184 131 269t317 85q279 0 355 -153q102 154 337 153q478 0 478 -606z" />
    <glyph glyph-name="ccedilla" unicode="&#xe7;" horiz-adv-x="1099" 
d="M588 930q-174 0 -252 -117t-78 -289t77 -284t232 -111q254 0 291 258h178q-29 -188 -140 -295q-112 -106 -296 -115l-68 -86l5 -4q19 15 79 15t110 -39t50 -122t-77 -127t-166 -44t-199 39l37 90q61 -27 117 -27q134 0 135 64q0 29 -27 46t-66 17t-88 -16l-34 57l108 140
q-211 16 -327 161q-115 145 -115 385t129 399t370 158q191 0 315 -91t142 -273h-180q-43 211 -262 211z" />
    <glyph glyph-name="egrave" unicode="&#xe8;" horiz-adv-x="1099" 
d="M573 1206l-268 293h223l177 -293h-132zM588 129q229 0 274 207h172q-34 -174 -152 -267t-300 -94q-244 0 -372 152t-136 405q0 240 140 396t357 155q109 0 195 -39t139 -100t88 -143q64 -151 58 -324h-793q-4 -147 80 -247t250 -101zM559 930q-129 0 -211 -86t-90 -213
h608q-8 127 -93 213t-214 86z" />
    <glyph glyph-name="eacute" unicode="&#xe9;" horiz-adv-x="1099" 
d="M492 1206l176 293h223l-268 -293h-131zM588 129q229 0 274 207h172q-34 -174 -152 -267t-300 -94q-244 0 -372 152t-136 405q0 240 140 396t357 155q109 0 195 -39t139 -100t88 -143q64 -151 58 -324h-793q-4 -147 80 -247t250 -101zM559 930q-129 0 -211 -86t-90 -213
h608q-8 127 -93 213t-214 86z" />
    <glyph glyph-name="ecircumflex" unicode="&#xea;" horiz-adv-x="1099" 
d="M268 1206l211 293h191l213 -293h-172l-142 197l-143 -197h-158zM588 129q229 0 274 207h172q-34 -174 -152 -267t-300 -94q-244 0 -372 152t-136 405q0 240 140 396t357 155q109 0 195 -39t139 -100t88 -143q64 -151 58 -324h-793q-4 -147 80 -247t250 -101zM559 930
q-129 0 -211 -86t-90 -213h608q-8 127 -93 213t-214 86z" />
    <glyph glyph-name="edieresis" unicode="&#xeb;" horiz-adv-x="1099" 
d="M670 1233v213h184v-213h-184zM285 1233v213h184v-213h-184zM588 129q229 0 274 207h172q-34 -174 -152 -267t-300 -94q-244 0 -372 152t-136 405q0 240 140 396t357 155q109 0 195 -39t139 -100t88 -143q64 -151 58 -324h-793q-4 -147 80 -247t250 -101zM559 930
q-129 0 -211 -86t-90 -213h608q-8 127 -93 213t-214 86z" />
    <glyph glyph-name="igrave" unicode="&#xec;" horiz-adv-x="454" 
d="M186 1206l-268 293h223l176 -293h-131zM315 0h-174v1059h174v-1059z" />
    <glyph glyph-name="iacute" unicode="&#xed;" horiz-adv-x="454" 
d="M137 1206l176 293h224l-269 -293h-131zM315 0h-174v1059h174v-1059z" />
    <glyph glyph-name="icircumflex" unicode="&#xee;" horiz-adv-x="454" 
d="M-76 1206l211 293h191l213 -293h-172l-142 197l-143 -197h-158zM315 0h-174v1059h174v-1059z" />
    <glyph glyph-name="idieresis" unicode="&#xef;" horiz-adv-x="454" 
d="M315 0h-174v1059h174v-1059zM330 1233v213h184v-213h-184zM-55 1233v213h184v-213h-184z" />
    <glyph glyph-name="eth" unicode="&#xf0;" horiz-adv-x="1175" 
d="M557 1036q184 0 285 -114h4q-45 96 -120 184t-130 125l-236 -111l-77 82l223 105q-47 43 -144 98l144 92q86 -57 158 -115l245 115l72 -76l-236 -108q356 -295 357 -785q0 -242 -135 -398t-379 -155q-244 0 -379 156t-135 382q0 227 130 375t353 148zM586 883
q-162 -1 -245 -97t-83 -270t94 -280t236 -106t235 106q95 106 95 276t-85 270t-247 101z" />
    <glyph glyph-name="ntilde" unicode="&#xf1;" 
d="M728 1241q-76 0 -167 41q-104 39 -139 39q-34 -1 -56 -21t-40 -65h-107q47 225 217 225q56 0 150 -41t135 -41q67 0 94 90h107q-12 -90 -66 -158q-52 -68 -128 -69zM131 0v1059h164v-168h4q109 193 344 192q197 0 281 -101t84 -286v-696h-174v717q0 98 -58 155t-158 58
q-154 0 -234 -91t-79 -241v-598h-174z" />
    <glyph glyph-name="ograve" unicode="&#xf2;" horiz-adv-x="1175" 
d="M530 1206l-268 293h223l177 -293h-132zM588 -25q-244 -1 -379 155t-135 399t135 399t379 156t379 -156t135 -399t-135 -399t-379 -155zM258 528q0 -186 94 -292t236 -106t235 106q94 106 95 292q0 186 -94 294t-236 108t-236 -108t-94 -294z" />
    <glyph glyph-name="oacute" unicode="&#xf3;" horiz-adv-x="1175" 
d="M487 1206l177 293h223l-269 -293h-131zM588 -25q-244 -1 -379 155t-135 399t135 399t379 156t379 -156t135 -399t-135 -399t-379 -155zM258 528q0 -186 94 -292t236 -106t235 106q94 106 95 292q0 186 -94 294t-236 108t-236 -108t-94 -294z" />
    <glyph glyph-name="ocircumflex" unicode="&#xf4;" horiz-adv-x="1175" 
d="M285 1206l211 293h190l213 -293h-172l-141 197l-144 -197h-157zM588 -25q-244 -1 -379 155t-135 399t135 399t379 156t379 -156t135 -399t-135 -399t-379 -155zM258 528q0 -186 94 -292t236 -106t235 106q94 106 95 292q0 186 -94 294t-236 108t-236 -108t-94 -294z" />
    <glyph glyph-name="otilde" unicode="&#xf5;" horiz-adv-x="1175" 
d="M748 1241q-76 0 -166 41q-104 39 -140 39q-36 -1 -56 -21q-21 -20 -40 -65h-106q47 225 217 225q57 0 150 -41t134 -41q68 0 95 90h106q-12 -90 -65 -161q-53 -66 -129 -66zM588 -25q-244 -1 -379 155t-135 399t135 399t379 156t379 -156t135 -399t-135 -399t-379 -155z
M258 528q0 -186 94 -292t236 -106t235 106q94 106 95 292q0 186 -94 294t-236 108t-236 -108t-94 -294z" />
    <glyph glyph-name="odieresis" unicode="&#xf6;" horiz-adv-x="1175" 
d="M688 1233v213h184v-213h-184zM303 1233v213h184v-213h-184zM588 -25q-244 -1 -379 155t-135 399t135 399t379 156t379 -156t135 -399t-135 -399t-379 -155zM258 528q0 -186 94 -292t236 -106t235 106q94 106 95 292q0 186 -94 294t-236 108t-236 -108t-94 -294z" />
    <glyph glyph-name="divide" unicode="&#xf7;" horiz-adv-x="1228" 
d="M98 449v139h1032v-139h-1032zM483 940q0 53 39 92t92 39q52 0 92 -39t40 -90t-40 -92q-38 -41 -90 -41t-93 39q-40 39 -40 92zM483 96q0 53 39 92t92 39q52 0 92 -39t40 -90t-40 -92q-38 -41 -90 -41t-93 39q-40 39 -40 92z" />
    <glyph glyph-name="oslash" unicode="&#xf8;" horiz-adv-x="1175" 
d="M586 930q-140 0 -234 -108t-94 -294q0 -141 61 -247l496 553q-90 96 -229 96zM593 129q136 1 230 107t94 269t-57 267l-495 -551q92 -92 228 -92zM1102 525q0 -239 -135 -395t-379 -155q-205 0 -338 117l-123 -137l-57 49l127 141q-123 151 -123 389t135 394t379 155
q211 0 344 -120l119 133l55 -54l-123 -135q119 -143 119 -382z" />
    <glyph glyph-name="ugrave" unicode="&#xf9;" 
d="M524 1206l-268 293h223l176 -293h-131zM1008 1059v-1059h-164v168h-4q-109 -193 -344 -193q-197 -1 -281 101t-84 286v697h174v-717q0 -98 57 -156t158 -57q154 0 234 91t80 241v598h174z" />
    <glyph glyph-name="uacute" unicode="&#xfa;" 
d="M469 1206l176 293h223l-268 -293h-131zM1008 1059v-1059h-164v168h-4q-109 -193 -344 -193q-197 -1 -281 101t-84 286v697h174v-717q0 -98 57 -156t158 -57q154 0 234 91t80 241v598h174z" />
    <glyph glyph-name="ucircumflex" unicode="&#xfb;" 
d="M262 1206l211 293h191l213 -293h-172l-142 197l-143 -197h-158zM1008 1059v-1059h-164v168h-4q-109 -193 -344 -193q-197 -1 -281 101t-84 286v697h174v-717q0 -98 57 -156t158 -57q154 0 234 91t80 241v598h174z" />
    <glyph glyph-name="udieresis" unicode="&#xfc;" 
d="M668 1233v213h184v-213h-184zM283 1233v213h184v-213h-184zM1008 1059v-1059h-164v168h-4q-109 -193 -344 -193q-197 -1 -281 101t-84 286v697h174v-717q0 -98 57 -156t158 -57q154 0 234 91t80 241v598h174z" />
    <glyph glyph-name="yacute" unicode="&#xfd;" horiz-adv-x="1024" 
d="M453 1206l176 293h223l-268 -293h-131zM1008 1059l-461 -1200q-63 -158 -128 -220q-65 -63 -158 -63t-142 18v160q78 -25 102 -24q94 0 144 96l71 180l-420 1053h197l309 -866h4l297 866h185z" />
    <glyph glyph-name="thorn" unicode="&#xfe;" horiz-adv-x="1214" 
d="M956 533q0 169 -84 283t-246 114t-241 -117q-80 -117 -80 -285t83 -284t250 -115q167 0 243 118q75 118 75 286zM311 1462v-547h4q83 168 327 168t372 -159q127 -160 127 -398t-125 -394t-359 -157q-94 0 -192 40t-150 126h-4v-547h-174v1868h174z" />
    <glyph glyph-name="ydieresis" unicode="&#xff;" horiz-adv-x="1024" 
d="M627 1233v213h184v-213h-184zM242 1233v213h184v-213h-184zM1008 1059l-461 -1200q-63 -158 -128 -220q-65 -63 -158 -63t-142 18v160q78 -25 102 -24q94 0 144 96l71 180l-420 1053h197l309 -866h4l297 866h185z" />
    <glyph glyph-name="Amacron" unicode="&#x100;" horiz-adv-x="1327" 
d="M313 1673v113h699v-113h-699zM-14 0l571 1462h215l571 -1462h-215l-159 440h-619l-164 -440h-200zM659 1286l-247 -682h495l-243 682h-5z" />
    <glyph glyph-name="amacron" unicode="&#x101;" horiz-adv-x="1099" 
d="M221 1284v113h699v-113h-699zM786 369v178q-58 -44 -315 -72q-81 -8 -147 -54t-66 -131t58 -123t147 -38q159 0 241 76t82 164zM944 -25q-147 0 -147 164q-137 -164 -373 -164q-156 0 -253 73t-97 234t108 229q117 73 428 115q95 13 122 32q56 38 56 96q0 176 -244 176
t-255 -201h-174q8 184 131 269t317 85q397 0 398 -290v-545q0 -72 8 -96q9 -24 39 -23q30 0 61 10v-135q-47 -29 -125 -29z" />
    <glyph glyph-name="Abreve" unicode="&#x102;" horiz-adv-x="1327" 
d="M674 1712q82 0 125 41t78 129h104q-23 -133 -107 -208t-217 -75q-274 0 -315 283h102q49 -170 230 -170zM-14 0l571 1462h215l571 -1462h-215l-159 440h-619l-164 -440h-200zM659 1286l-247 -682h495l-243 682h-5z" />
    <glyph glyph-name="abreve" unicode="&#x103;" horiz-adv-x="1099" 
d="M578 1323q82 0 124 41t78 129h105q-23 -133 -107 -208t-217 -75q-274 0 -315 283h102q49 -170 230 -170zM786 369v178q-58 -44 -315 -72q-81 -8 -147 -54t-66 -131t58 -123t147 -38q159 0 241 76t82 164zM944 -25q-147 0 -147 164q-137 -164 -373 -164q-156 0 -253 73
t-97 234t108 229q117 73 428 115q95 13 122 32q56 38 56 96q0 176 -244 176t-255 -201h-174q8 184 131 269t317 85q397 0 398 -290v-545q0 -72 8 -96q9 -24 39 -23q30 0 61 10v-135q-47 -29 -125 -29z" />
    <glyph glyph-name="Aogonek" unicode="&#x104;" horiz-adv-x="1327" 
d="M659 1286l-247 -682h495l-243 682h-5zM1038 -242q0 -34 20 -60t58 -26q78 0 127 62l66 -37q-74 -127 -222 -127q-188 0 -188 168q0 38 30 87q57 94 199 175l-159 440h-619l-164 -440h-200l571 1462h215l571 -1462h-133q-172 -143 -172 -242z" />
    <glyph glyph-name="aogonek" unicode="&#x105;" horiz-adv-x="1099" 
d="M786 369v178q-58 -44 -315 -72q-81 -8 -147 -54t-66 -131t58 -123t147 -38q159 0 241 76t82 164zM424 -25q-156 0 -253 73t-97 234t108 229q117 73 428 115q95 13 122 32q56 38 56 96q0 176 -244 176t-255 -201h-174q8 184 131 269t317 85q397 0 398 -290v-545
q0 -72 8 -96q9 -24 39 -23q30 0 61 10v-135q-47 -29 -125 -29q-12 0 -18 2q-43 -39 -58 -55q-86 -86 -86 -164q0 -34 20 -60t58 -26q78 0 127 62l66 -37q-74 -127 -222 -127q-188 0 -188 168q0 76 109 180q37 35 110 78q-65 28 -65 143q-137 -164 -373 -164z" />
    <glyph glyph-name="Cacute" unicode="&#x106;" horiz-adv-x="1478" 
d="M709 1595l176 293h223l-268 -293h-131zM778 1333q-246 0 -370 -171t-125 -430q0 -259 124 -431t373 -172q186 0 298 118t124 304h195q-29 -279 -193 -433t-440 -153q-326 0 -501 213t-175 548t183 553t509 218q238 0 404 -124t198 -351h-194q-32 152 -142 232t-268 79z
" />
    <glyph glyph-name="cacute" unicode="&#x107;" horiz-adv-x="1099" 
d="M498 1206l176 293h223l-268 -293h-131zM588 930q-174 0 -252 -117t-78 -289t77 -284t232 -111q254 0 291 258h178q-28 -197 -148 -305t-319 -107q-239 1 -367 149t-128 395t129 406t370 158q191 0 315 -91t142 -273h-180q-43 211 -262 211z" />
    <glyph glyph-name="Ccircumflex" unicode="&#x108;" horiz-adv-x="1478" 
d="M483 1595l211 293h191l213 -293h-172l-142 197l-143 -197h-158zM778 1333q-246 0 -370 -171t-125 -430q0 -259 124 -431t373 -172q186 0 298 118t124 304h195q-29 -279 -193 -433t-440 -153q-326 0 -501 213t-175 548t183 553t509 218q238 0 404 -124t198 -351h-194
q-32 152 -142 232t-268 79z" />
    <glyph glyph-name="ccircumflex" unicode="&#x109;" horiz-adv-x="1099" 
d="M279 1206l210 293h191l213 -293h-172l-141 197l-144 -197h-157zM588 930q-174 0 -252 -117t-78 -289t77 -284t232 -111q254 0 291 258h178q-28 -197 -148 -305t-319 -107q-239 1 -367 149t-128 395t129 406t370 158q191 0 315 -91t142 -273h-180q-43 211 -262 211z" />
    <glyph glyph-name="Cdotaccent" unicode="&#x10a;" horiz-adv-x="1478" 
d="M864 1839v-213h-184v213h184zM778 1333q-246 0 -370 -171t-125 -430q0 -259 124 -431t373 -172q186 0 298 118t124 304h195q-29 -279 -193 -433t-440 -153q-326 0 -501 213t-175 548t183 553t509 218q238 0 404 -124t198 -351h-194q-32 152 -142 232t-268 79z" />
    <glyph glyph-name="cdotaccent" unicode="&#x10b;" horiz-adv-x="1099" 
d="M668 1450v-213h-185v213h185zM588 930q-174 0 -252 -117t-78 -289t77 -284t232 -111q254 0 291 258h178q-28 -197 -148 -305t-319 -107q-239 1 -367 149t-128 395t129 406t370 158q191 0 315 -91t142 -273h-180q-43 211 -262 211z" />
    <glyph glyph-name="Ccaron" unicode="&#x10c;" horiz-adv-x="1478" 
d="M1079 1888l-211 -293h-190l-213 293h172l141 -196l144 196h157zM778 1333q-246 0 -370 -171t-125 -430q0 -259 124 -431t373 -172q186 0 298 118t124 304h195q-29 -279 -193 -433t-440 -153q-326 0 -501 213t-175 548t183 553t509 218q238 0 404 -124t198 -351h-194
q-32 152 -142 232t-268 79z" />
    <glyph glyph-name="ccaron" unicode="&#x10d;" horiz-adv-x="1099" 
d="M872 1499l-210 -293h-191l-213 293h172l141 -196l144 196h157zM588 930q-174 0 -252 -117t-78 -289t77 -284t232 -111q254 0 291 258h178q-28 -197 -148 -305t-319 -107q-239 1 -367 149t-128 395t129 406t370 158q191 0 315 -91t142 -273h-180q-43 211 -262 211z" />
    <glyph glyph-name="Dcaron" unicode="&#x10e;" horiz-adv-x="1441" 
d="M956 1888l-211 -293h-190l-213 293h172l141 -196l144 196h157zM160 0v1462h502q342 0 522 -174t180 -522q0 -766 -702 -766h-502zM354 1298v-1134h324q53 0 103 7t126 41t129 91t93 170t40 266q0 274 -114 417q-115 142 -373 142h-328z" />
    <glyph glyph-name="dcaron" unicode="&#x10f;" horiz-adv-x="1337" 
d="M1180 1169l53 293h223l-153 -293h-123zM1077 1462v-1462h-174v143h-4q-83 -168 -327 -168t-371 160q-127 159 -127 397t126 395t357 156q95 0 193 -40t149 -125h4v544h174zM576 930q-166 0 -242 -118t-76 -286t84 -282t246 -115q162 0 242 117q80 116 79 284
q0 168 -83 284t-250 116z" />
    <glyph glyph-name="Dcroat" unicode="&#x110;" horiz-adv-x="1441" 
d="M160 0v694h-144v140h144v628h502q342 0 522 -174t180 -522q0 -766 -702 -766h-502zM354 1298v-464h439v-140h-439v-530h324q53 0 103 7t126 41t129 91t93 170t40 266q0 274 -114 417q-115 142 -373 142h-328z" />
    <glyph glyph-name="dcroat" unicode="&#x111;" horiz-adv-x="1234" 
d="M576 930q-166 0 -242 -118t-76 -286t84 -282t246 -115q162 0 242 117q80 116 79 284q0 168 -83 284t-250 116zM555 1194v113h348v155h174v-155h176v-113h-176v-1194h-174v143h-4q-83 -168 -327 -168t-371 160q-127 159 -127 397t126 395t357 156q95 0 193 -40t149 -125h4
v276h-348z" />
    <glyph glyph-name="Emacron" unicode="&#x112;" horiz-adv-x="1251" 
d="M324 1673v113h698v-113h-698zM160 0v1462h1009v-164h-815v-464h760v-164h-760v-506h822v-164h-1016z" />
    <glyph glyph-name="emacron" unicode="&#x113;" horiz-adv-x="1099" 
d="M229 1284v113h699v-113h-699zM588 129q229 0 274 207h172q-34 -174 -152 -267t-300 -94q-244 0 -372 152t-136 405q0 240 140 396t357 155q109 0 195 -39t139 -100t88 -143q64 -151 58 -324h-793q-4 -147 80 -247t250 -101zM559 930q-129 0 -211 -86t-90 -213h608
q-8 127 -93 213t-214 86z" />
    <glyph glyph-name="Ebreve" unicode="&#x114;" horiz-adv-x="1251" 
d="M666 1712q82 0 125 41t77 129h105q-23 -133 -107 -208t-217 -75q-274 0 -315 283h102q49 -170 230 -170zM160 0v1462h1009v-164h-815v-464h760v-164h-760v-506h822v-164h-1016z" />
    <glyph glyph-name="ebreve" unicode="&#x115;" horiz-adv-x="1099" 
d="M586 1323q82 0 125 41t77 129h105q-23 -133 -107 -208t-217 -75q-274 0 -315 283h102q49 -170 230 -170zM588 129q229 0 274 207h172q-34 -174 -152 -267t-300 -94q-244 0 -372 152t-136 405q0 240 140 396t357 155q109 0 195 -39t139 -100t88 -143q64 -151 58 -324h-793
q-4 -147 80 -247t250 -101zM559 930q-129 0 -211 -86t-90 -213h608q-8 127 -93 213t-214 86z" />
    <glyph glyph-name="Edotaccent" unicode="&#x116;" horiz-adv-x="1251" 
d="M758 1839v-213h-185v213h185zM160 0v1462h1009v-164h-815v-464h760v-164h-760v-506h822v-164h-1016z" />
    <glyph glyph-name="edotaccent" unicode="&#x117;" horiz-adv-x="1099" 
d="M666 1450v-213h-185v213h185zM588 129q229 0 274 207h172q-34 -174 -152 -267t-300 -94q-244 0 -372 152t-136 405q0 240 140 396t357 155q109 0 195 -39t139 -100t88 -143q64 -151 58 -324h-793q-4 -147 80 -247t250 -101zM559 930q-129 0 -211 -86t-90 -213h608
q-8 127 -93 213t-214 86z" />
    <glyph glyph-name="Eogonek" unicode="&#x118;" horiz-adv-x="1251" 
d="M1176 0h-99q-172 -143 -172 -242q-1 -34 19 -60t59 -26q78 0 127 62l66 -37q-74 -127 -222 -127q-188 0 -188 168q0 38 30 87q57 94 199 175h-835v1462h1009v-164h-815v-464h760v-164h-760v-506h822v-164z" />
    <glyph glyph-name="eogonek" unicode="&#x119;" horiz-adv-x="1099" 
d="M559 930q-129 0 -211 -86t-90 -213h608q-8 127 -93 213t-214 86zM496 -242q0 -34 19 -60t58 -26q78 0 127 62l66 -37q-74 -127 -221 -127q-188 0 -189 168q0 76 109 180q41 33 80 59q-98 2 -185 39q-274 129 -286 516q0 240 140 396t357 155q109 0 195 -39t139 -100
t88 -143q64 -151 58 -324h-793q-4 -147 80 -247t250 -101q229 0 274 207h172q-35 -176 -153 -268q-96 -76 -240 -88q-11 -12 -31 -30q-114 -108 -114 -192z" />
    <glyph glyph-name="Ecaron" unicode="&#x11a;" horiz-adv-x="1251" 
d="M969 1888l-211 -293h-191l-213 293h172l142 -196l143 196h158zM160 0v1462h1009v-164h-815v-464h760v-164h-760v-506h822v-164h-1016z" />
    <glyph glyph-name="ecaron" unicode="&#x11b;" horiz-adv-x="1099" 
d="M872 1499l-210 -293h-191l-213 293h172l141 -196l144 196h157zM588 129q229 0 274 207h172q-34 -174 -152 -267t-300 -94q-244 0 -372 152t-136 405q0 240 140 396t357 155q109 0 195 -39t139 -100t88 -143q64 -151 58 -324h-793q-4 -147 80 -247t250 -101zM559 930
q-129 0 -211 -86t-90 -213h608q-8 127 -93 213t-214 86z" />
    <glyph glyph-name="Gcircumflex" unicode="&#x11c;" horiz-adv-x="1554" 
d="M498 1595l211 293h190l213 -293h-172l-141 197l-144 -197h-157zM784 -35q-210 -1 -372 105t-243 272t-81 360q0 338 182 566t514 229q252 0 421 -120t208 -365h-194q-29 160 -146 240t-289 81q-248 0 -374 -181t-127 -431q0 -250 134 -421t362 -171t356 135
q127 135 118 342h-467v164h641v-770h-122l-52 182q-81 -109 -207 -163t-262 -54z" />
    <glyph glyph-name="gcircumflex" unicode="&#x11d;" horiz-adv-x="1175" 
d="M301 1206l211 293h190l213 -293h-172l-141 197l-143 -197h-158zM557 141q160 0 238 121q77 121 77 284q0 164 -74 274t-230 110q-154 0 -232 -110t-78 -275q0 -230 121 -340q69 -64 178 -64zM1044 1059v-969q0 -262 -120 -391t-364 -129q-243 0 -371 130q-71 73 -74 181
h174q4 -86 89 -129t185 -43q317 0 318 402v69h-4q-43 -92 -133 -142t-197 -50q-225 0 -349 154t-124 371q0 218 105 383q53 85 153 136t231 51q219 0 316 -176h2v152h163z" />
    <glyph glyph-name="Gbreve" unicode="&#x11e;" horiz-adv-x="1554" 
d="M793 1712q82 0 125 41t77 129h105q-23 -133 -107 -208t-217 -75q-274 0 -315 283h102q49 -170 230 -170zM784 -35q-210 -1 -372 105t-243 272t-81 360q0 338 182 566t514 229q252 0 421 -120t208 -365h-194q-29 160 -146 240t-289 81q-248 0 -374 -181t-127 -431
q0 -250 134 -421t362 -171t356 135q127 135 118 342h-467v164h641v-770h-122l-52 182q-81 -109 -207 -163t-262 -54z" />
    <glyph glyph-name="gbreve" unicode="&#x11f;" horiz-adv-x="1175" 
d="M598 1323q82 0 125 41t78 129h104q-23 -133 -107 -208t-216 -75q-275 0 -316 283h103q49 -170 229 -170zM557 141q160 0 238 121q77 121 77 284q0 164 -74 274t-230 110q-154 0 -232 -110t-78 -275q0 -230 121 -340q69 -64 178 -64zM1044 1059v-969q0 -262 -120 -391
t-364 -129q-243 0 -371 130q-71 73 -74 181h174q4 -86 89 -129t185 -43q317 0 318 402v69h-4q-43 -92 -133 -142t-197 -50q-225 0 -349 154t-124 371q0 218 105 383q53 85 153 136t231 51q219 0 316 -176h2v152h163z" />
    <glyph glyph-name="Gdotaccent" unicode="&#x120;" horiz-adv-x="1554" 
d="M879 1839v-213h-185v213h185zM784 -35q-210 -1 -372 105t-243 272t-81 360q0 338 182 566t514 229q252 0 421 -120t208 -365h-194q-29 160 -146 240t-289 81q-248 0 -374 -181t-127 -431q0 -250 134 -421t362 -171t356 135q127 135 118 342h-467v164h641v-770h-122
l-52 182q-81 -109 -207 -163t-262 -54z" />
    <glyph glyph-name="gdotaccent" unicode="&#x121;" horiz-adv-x="1175" 
d="M680 1450v-213h-184v213h184zM557 141q160 0 238 121q77 121 77 284q0 164 -74 274t-230 110q-154 0 -232 -110t-78 -275q0 -230 121 -340q69 -64 178 -64zM1044 1059v-969q0 -262 -120 -391t-364 -129q-243 0 -371 130q-71 73 -74 181h174q4 -86 89 -129t185 -43
q317 0 318 402v69h-4q-43 -92 -133 -142t-197 -50q-225 0 -349 154t-124 371q0 218 105 383q53 85 153 136t231 51q219 0 316 -176h2v152h163z" />
    <glyph glyph-name="Gcommaaccent" unicode="&#x122;" horiz-adv-x="1554" 
d="M657 -283v181h228v-158q-1 -84 -55 -127t-148 -43v72q39 10 58 25q20 15 22 23t2 27h-107zM784 -35q-210 -1 -372 105t-243 272t-81 360q0 338 182 566t514 229q252 0 421 -120t208 -365h-194q-29 160 -146 240t-289 81q-248 0 -374 -181t-127 -431q0 -250 134 -421
t362 -171t356 135q127 135 118 342h-467v164h641v-770h-122l-52 182q-81 -109 -207 -163t-262 -54z" />
    <glyph glyph-name="gcommaaccent" unicode="&#x123;" horiz-adv-x="1175" 
d="M698 1462v-180h-227v158q0 84 54 127t149 43v-72q-38 -10 -58 -26t-22 -23q-2 -8 -2 -27h106zM557 141q160 0 238 121q77 121 77 284q0 164 -74 274t-230 110q-154 0 -232 -110t-78 -275q0 -230 121 -340q69 -64 178 -64zM1044 1059v-969q0 -262 -120 -391t-364 -129
q-243 0 -371 130q-71 73 -74 181h174q4 -86 89 -129t185 -43q317 0 318 402v69h-4q-43 -92 -133 -142t-197 -50q-225 0 -349 154t-124 371q0 218 105 383q53 85 153 136t231 51q219 0 316 -176h2v152h163z" />
    <glyph glyph-name="Hcircumflex" unicode="&#x124;" horiz-adv-x="1478" 
d="M428 1595l211 293h190l213 -293h-172l-141 197l-143 -197h-158zM160 0v1462h194v-628h770v628h195v-1462h-195v670h-770v-670h-194z" />
    <glyph glyph-name="hcircumflex" unicode="&#x125;" 
d="M262 1595l211 293h191l213 -293h-172l-142 197l-143 -197h-158zM131 0v1462h174v-559h4q39 90 134 135t200 45q197 0 281 -101t84 -286v-696h-174v717q0 98 -58 155t-158 58q-154 0 -234 -91t-79 -241v-598h-174z" />
    <glyph glyph-name="Hbar" unicode="&#x126;" horiz-adv-x="1478" 
d="M354 813h770v133h-770v-133zM160 0v1462h194v-403h770v403h195v-1462h-195v649h-770v-649h-194z" />
    <glyph glyph-name="hbar" unicode="&#x127;" horiz-adv-x="1159" 
d="M-20 1194v113h172v155h174v-155h290v-113h-290v-291h4q39 90 134 135t200 45q196 0 280 -101t84 -286v-696h-174v717q0 98 -57 155t-158 58q-153 0 -233 -91t-80 -241v-598h-174v1194h-172z" />
    <glyph glyph-name="Itilde" unicode="&#x128;" horiz-adv-x="530" 
d="M424 1630q-76 0 -166 41q-104 39 -139 39t-57 -20t-39 -66h-107q47 225 217 225q57 0 151 -41t134 -41q67 1 94 91h106q-12 -90 -65 -162q-53 -66 -129 -66zM168 0v1462h194v-1462h-194z" />
    <glyph glyph-name="itilde" unicode="&#x129;" horiz-adv-x="454" 
d="M388 1241q-76 0 -167 41q-104 39 -139 39q-35 -1 -56 -21t-40 -65h-107q47 225 217 225q56 0 150 -41t135 -41q67 0 94 90h107q-12 -90 -66 -158q-52 -68 -128 -69zM315 0h-174v1059h174v-1059z" />
    <glyph glyph-name="Imacron" unicode="&#x12a;" horiz-adv-x="530" 
d="M-82 1673v113h698v-113h-698zM168 0v1462h194v-1462h-194z" />
    <glyph glyph-name="imacron" unicode="&#x12b;" horiz-adv-x="454" 
d="M-119 1284v113h699v-113h-699zM315 0h-174v1059h174v-1059z" />
    <glyph glyph-name="Iogonek" unicode="&#x12e;" horiz-adv-x="530" 
d="M168 0v1462h194v-1462q-88 -86 -120 -139t-33 -97q0 -92 68 -92t116 62l58 -37q-70 -127 -187 -127q-182 0 -182 168q0 26 12 60t62 92t133 110h-121z" />
    <glyph glyph-name="iogonek" unicode="&#x12f;" horiz-adv-x="454" 
d="M315 1462v-213h-174v213h174zM315 1059v-1059q-89 -86 -121 -139t-32 -95q0 -94 70 -94t114 62l57 -37q-66 -127 -198 -127q-170 0 -170 168q1 64 63 137t144 125h-101v1059h174z" />
    <glyph glyph-name="Idotaccent" unicode="&#x130;" horiz-adv-x="530" 
d="M358 1839v-213h-184v213h184zM168 0v1462h194v-1462h-194z" />
    <glyph glyph-name="dotlessi" unicode="&#x131;" horiz-adv-x="454" 
d="M315 0h-174v1059h174v-1059z" />
    <glyph glyph-name="Jcircumflex" unicode="&#x134;" horiz-adv-x="1062" 
d="M494 1595l211 293h190l213 -293h-172l-141 197l-144 -197h-157zM903 1462v-1097q0 -168 -102 -284q-103 -116 -319 -116t-326 110t-111 316v90h195v-61q0 -141 51 -216t181 -75t183 68t54 196v1069h194z" />
    <glyph glyph-name="jcircumflex" unicode="&#x135;" horiz-adv-x="454" 
d="M-80 1206l211 293h191l213 -293h-173l-141 197l-143 -197h-158zM315 1059v-1194q0 -270 -254 -271q-49 0 -90 9v149q25 -4 35 -4h37q57 0 78 32q20 32 20 114v1165h174z" />
    <glyph glyph-name="Kcommaaccent" unicode="&#x136;" horiz-adv-x="1366" 
d="M586 -283v181h227v-158q0 -84 -54 -127t-149 -43v72q39 10 59 25q19 15 21 23t2 27h-106zM160 0v1462h194v-729l742 729h252l-617 -590l641 -872h-246l-528 739l-244 -227v-512h-194z" />
    <glyph glyph-name="kcommaaccent" unicode="&#x137;" horiz-adv-x="1062" 
d="M444 -283v181h228v-158q0 -84 -54 -127t-149 -43v72q39 10 58 25t21 23t3 27h-107zM141 0v1462h174v-866l484 463h233l-420 -385l451 -674h-221l-363 553l-164 -152v-401h-174z" />
    <glyph glyph-name="Lacute" unicode="&#x139;" 
d="M190 1595l177 293h223l-268 -293h-132zM160 0v1462h194v-1298h774v-164h-968z" />
    <glyph glyph-name="lacute" unicode="&#x13a;" horiz-adv-x="454" 
d="M143 1595l176 293h224l-269 -293h-131zM141 0v1462h174v-1462h-174z" />
    <glyph glyph-name="Lcommaaccent" unicode="&#x13b;" 
d="M498 -283v181h227v-158q0 -84 -54 -127t-149 -43v72q39 10 59 25q19 15 21 23t2 27h-106zM160 0v1462h194v-1298h774v-164h-968z" />
    <glyph glyph-name="lcommaaccent" unicode="&#x13c;" horiz-adv-x="454" 
d="M115 -283v181h227v-158q0 -84 -54 -127t-149 -43v72q39 10 59 25q19 15 21 23t2 27h-106zM141 0v1462h174v-1462h-174z" />
    <glyph glyph-name="Lcaron" unicode="&#x13d;" 
d="M573 1169l54 293h223l-154 -293h-123zM160 0v1462h194v-1298h774v-164h-968z" />
    <glyph glyph-name="lcaron" unicode="&#x13e;" horiz-adv-x="575" 
d="M418 1169l53 293h223l-153 -293h-123zM141 0v1462h174v-1462h-174z" />
    <glyph glyph-name="Ldot" unicode="&#x13f;" 
d="M817 1059v-213h-184v213h184zM160 0v1462h194v-1298h774v-164h-968z" />
    <glyph glyph-name="ldot" unicode="&#x140;" horiz-adv-x="712" 
d="M635 1059v-213h-184v213h184zM141 0v1462h174v-1462h-174z" />
    <glyph glyph-name="Lslash" unicode="&#x141;" 
d="M160 0v492l-162 -115v155l162 115v815h194v-676l467 328v-156l-467 -327v-467h774v-164h-968z" />
    <glyph glyph-name="lslash" unicode="&#x142;" horiz-adv-x="454" 
d="M141 0v657l-143 -112v145l143 115v657h174v-520l144 115v-146l-144 -114v-797h-174z" />
    <glyph glyph-name="Nacute" unicode="&#x143;" horiz-adv-x="1478" 
d="M659 1595l177 293h223l-268 -293h-132zM158 0v1462h207l770 -1186h4v1186h184v-1462h-213l-764 1174h-4v-1174h-184z" />
    <glyph glyph-name="nacute" unicode="&#x144;" 
d="M496 1206l176 293h223l-268 -293h-131zM131 0v1059h164v-168h4q109 193 344 192q197 0 281 -101t84 -286v-696h-174v717q0 98 -58 155t-158 58q-154 0 -234 -91t-79 -241v-598h-174z" />
    <glyph glyph-name="Ncommaaccent" unicode="&#x145;" horiz-adv-x="1478" 
d="M618 -283v181h228v-158q0 -84 -54 -127t-149 -43v72q39 10 58 25t21 23t3 27h-107zM158 0v1462h207l770 -1186h4v1186h184v-1462h-213l-764 1174h-4v-1174h-184z" />
    <glyph glyph-name="ncommaaccent" unicode="&#x146;" 
d="M453 -283v181h227v-158q0 -84 -54 -127t-149 -43v72q39 10 59 25q19 15 21 23t2 27h-106zM131 0v1059h164v-168h4q109 193 344 192q197 0 281 -101t84 -286v-696h-174v717q0 98 -58 155t-158 58q-154 0 -234 -91t-79 -241v-598h-174z" />
    <glyph glyph-name="Ncaron" unicode="&#x147;" horiz-adv-x="1478" 
d="M1042 1888l-211 -293h-190l-213 293h172l141 -196l144 196h157zM158 0v1462h207l770 -1186h4v1186h184v-1462h-213l-764 1174h-4v-1174h-184z" />
    <glyph glyph-name="ncaron" unicode="&#x148;" 
d="M879 1499l-211 -293h-191l-213 293h172l142 -196l143 196h158zM131 0v1059h164v-168h4q109 193 344 192q197 0 281 -101t84 -286v-696h-174v717q0 98 -58 155t-158 58q-154 0 -234 -91t-79 -241v-598h-174z" />
    <glyph glyph-name="Omacron" unicode="&#x14c;" horiz-adv-x="1556" 
d="M432 1673v113h698v-113h-698zM78 731q0 205 76 376t238 281q163 110 386 110t386 -110t239 -281t76 -376t-76 -376t-239 -281t-386 -109q-223 0 -386 110q-162 111 -238 281t-76 375zM778 129q170 0 288 91t168 223t50 288t-50 288t-168 223t-288 91t-288 -91
q-218 -168 -218 -510t218 -512q118 -91 288 -91z" />
    <glyph glyph-name="omacron" unicode="&#x14d;" horiz-adv-x="1175" 
d="M248 1284v113h698v-113h-698zM588 -25q-244 -1 -379 155t-135 399t135 399t379 156t379 -156t135 -399t-135 -399t-379 -155zM258 528q0 -186 94 -292t236 -106t235 106q94 106 95 292q0 186 -94 294t-236 108t-236 -108t-94 -294z" />
    <glyph glyph-name="Obreve" unicode="&#x14e;" horiz-adv-x="1556" 
d="M793 1712q82 0 125 41t77 129h105q-23 -133 -107 -208t-217 -75q-274 0 -315 283h102q49 -170 230 -170zM78 731q0 205 76 376t238 281q163 110 386 110t386 -110t239 -281t76 -376t-76 -376t-239 -281t-386 -109q-223 0 -386 110q-162 111 -238 281t-76 375zM778 129
q170 0 288 91t168 223t50 288t-50 288t-168 223t-288 91t-288 -91q-218 -168 -218 -510t218 -512q118 -91 288 -91z" />
    <glyph glyph-name="obreve" unicode="&#x14f;" horiz-adv-x="1175" 
d="M602 1323q82 0 125 41t78 129h104q-23 -133 -107 -208t-216 -75q-275 0 -316 283h103q49 -170 229 -170zM588 -25q-244 -1 -379 155t-135 399t135 399t379 156t379 -156t135 -399t-135 -399t-379 -155zM258 528q0 -186 94 -292t236 -106t235 106q94 106 95 292
q0 186 -94 294t-236 108t-236 -108t-94 -294z" />
    <glyph glyph-name="Ohungarumlaut" unicode="&#x150;" horiz-adv-x="1556" 
d="M549 1595l166 293h215l-246 -293h-135zM868 1595l166 293h215l-245 -293h-136zM78 731q0 205 76 376t238 281q163 110 386 110t386 -110t239 -281t76 -376t-76 -376t-239 -281t-386 -109q-223 0 -386 110q-162 111 -238 281t-76 375zM778 129q170 0 288 91t168 223
t50 288t-50 288t-168 223t-288 91t-288 -91q-218 -168 -218 -510t218 -512q118 -91 288 -91z" />
    <glyph glyph-name="ohungarumlaut" unicode="&#x151;" horiz-adv-x="1175" 
d="M350 1206l166 293h215l-246 -293h-135zM670 1206l166 293h215l-246 -293h-135zM588 -25q-244 -1 -379 155t-135 399t135 399t379 156t379 -156t135 -399t-135 -399t-379 -155zM258 528q0 -186 94 -292t236 -106t235 106q94 106 95 292q0 186 -94 294t-236 108t-236 -108
t-94 -294z" />
    <glyph glyph-name="OE" unicode="&#x152;" horiz-adv-x="2199" 
d="M762 129q156 0 261 81t105 208v616q0 94 -38 152t-125 102q-88 44 -199 45q-238 0 -366 -176t-128 -435t130 -426t360 -167zM1128 0v141h-4q-51 -84 -155 -130t-221 -46q-315 0 -493 215q-177 215 -177 550t184 551t502 216q113 0 215 -40t145 -116h4v121h977v-164h-782
v-464h717v-164h-717v-506h795v-164h-990z" />
    <glyph glyph-name="oe" unicode="&#x153;" horiz-adv-x="1824" 
d="M1307 129q104 0 180 54t106 153h166q-104 -360 -452 -361q-295 0 -385 209q-90 -209 -367 -209q-237 0 -359 156q-122 155 -122 399t123 399t358 154q276 0 367 -186q53 90 155 138t219 48q252 0 368 -169t105 -437h-768q-4 -145 77 -247t229 -101zM1585 631
q0 137 -77 218t-212 81t-216 -83t-79 -216h584zM850 532q0 397 -295 398q-153 0 -225 -123t-72 -288t74 -277t223 -113q111 -1 179 63t92 149t24 191z" />
    <glyph glyph-name="Racute" unicode="&#x154;" horiz-adv-x="1402" 
d="M582 1595l176 293h223l-268 -293h-131zM354 788h406q156 0 247 56t91 188q0 268 -260 266h-484v-510zM160 0v1462h688q207 0 326 -103t118 -280q0 -139 -62 -237t-192 -133v-4q115 -23 164 -104t59 -276q11 -194 44 -262q16 -35 38 -63h-217q-25 27 -30 83q-6 56 -10 139
q-12 329 -143 383q-46 19 -114 20h-475v-625h-194z" />
    <glyph glyph-name="racute" unicode="&#x155;" horiz-adv-x="681" 
d="M164 1206l176 293h223l-268 -293h-131zM125 0v1059h164v-223h4q63 131 157 191t232 56v-184q-203 -1 -293 -109t-90 -319v-471h-174z" />
    <glyph glyph-name="Rcommaaccent" unicode="&#x156;" horiz-adv-x="1402" 
d="M604 -283v181h227v-158q0 -84 -54 -127t-148 -43v72q39 10 58 25t21 23t3 27h-107zM354 788h406q156 0 247 56t91 188q0 268 -260 266h-484v-510zM160 0v1462h688q207 0 326 -103t118 -280q0 -139 -62 -237t-192 -133v-4q115 -23 164 -104t59 -276q11 -194 44 -262
q16 -35 38 -63h-217q-25 27 -30 83q-6 56 -10 139q-12 329 -143 383q-46 19 -114 20h-475v-625h-194z" />
    <glyph glyph-name="rcommaaccent" unicode="&#x157;" horiz-adv-x="681" 
d="M98 -283v181h228v-158q0 -84 -54 -127t-149 -43v72q39 10 58 25t21 23t3 27h-107zM125 0v1059h164v-223h4q63 131 157 191t232 56v-184q-203 -1 -293 -109t-90 -319v-471h-174z" />
    <glyph glyph-name="Rcaron" unicode="&#x158;" horiz-adv-x="1402" 
d="M1006 1888l-211 -293h-191l-213 293h172l142 -196l143 196h158zM354 788h406q156 0 247 56t91 188q0 268 -260 266h-484v-510zM160 0v1462h688q207 0 326 -103t118 -280q0 -139 -62 -237t-192 -133v-4q115 -23 164 -104t59 -276q11 -194 44 -262q16 -35 38 -63h-217
q-25 27 -30 83q-6 56 -10 139q-12 329 -143 383q-46 19 -114 20h-475v-625h-194z" />
    <glyph glyph-name="rcaron" unicode="&#x159;" horiz-adv-x="681" 
d="M702 1499l-210 -293h-191l-213 293h172l141 -196l144 196h157zM125 0v1059h164v-223h4q63 131 157 191t232 56v-184q-203 -1 -293 -109t-90 -319v-471h-174z" />
    <glyph glyph-name="Sacute" unicode="&#x15a;" horiz-adv-x="1327" 
d="M575 1595l177 293h223l-268 -293h-132zM643 1333q-141 0 -234 -58t-94 -192q-1 -71 51 -119t135 -73t182 -45t199 -49t184 -71q83 -42 134 -125t51 -215t-90 -234q-165 -187 -481 -187q-262 0 -433 131t-171 385h184q0 -174 123 -263t291 -89t276 61t107 205
q0 111 -96 171q-95 60 -233 87t-276 61t-235 121q-96 87 -96 234q0 209 155 319q156 110 384 110t376 -117q146 -116 154 -347h-184q-33 299 -363 299z" />
    <glyph glyph-name="sacute" unicode="&#x15b;" horiz-adv-x="1024" 
d="M418 1206l176 293h223l-268 -293h-131zM522 129q256 0 256 158q0 63 -51 103t-128 55q-180 35 -334 87q-77 26 -128 90t-51 160q0 146 119 224t295 78t290 -76q114 -74 125 -256h-174q-4 63 -43 105q-66 71 -181 72q-247 2 -247 -134q0 -43 29 -72q56 -56 171 -80
t169 -37q236 -54 296 -171q28 -54 28 -126q-1 -174 -133 -254t-322 -80q-190 -1 -314 87q-123 88 -131 272h175q4 -109 84 -157t200 -48z" />
    <glyph glyph-name="Scircumflex" unicode="&#x15c;" horiz-adv-x="1327" 
d="M358 1595l211 293h191l213 -293h-172l-142 197l-143 -197h-158zM643 1333q-141 0 -234 -58t-94 -192q-1 -71 51 -119t135 -73t182 -45t199 -49t184 -71q83 -42 134 -125t51 -215t-90 -234q-165 -187 -481 -187q-262 0 -433 131t-171 385h184q0 -174 123 -263t291 -89
t276 61t107 205q0 111 -96 171q-95 60 -233 87t-276 61t-235 121q-96 87 -96 234q0 209 155 319q156 110 384 110t376 -117q146 -116 154 -347h-184q-33 299 -363 299z" />
    <glyph glyph-name="scircumflex" unicode="&#x15d;" horiz-adv-x="1024" 
d="M211 1206l211 293h190l213 -293h-172l-141 197l-143 -197h-158zM522 129q256 0 256 158q0 63 -51 103t-128 55q-180 35 -334 87q-77 26 -128 90t-51 160q0 146 119 224t295 78t290 -76q114 -74 125 -256h-174q-4 63 -43 105q-66 71 -181 72q-247 2 -247 -134
q0 -43 29 -72q56 -56 171 -80t169 -37q236 -54 296 -171q28 -54 28 -126q-1 -174 -133 -254t-322 -80q-190 -1 -314 87q-123 88 -131 272h175q4 -109 84 -157t200 -48z" />
    <glyph glyph-name="Scedilla" unicode="&#x15e;" horiz-adv-x="1327" 
d="M562 -328q134 0 134 64q0 29 -26 46q-27 17 -66 17t-88 -16l-35 57l101 131q-264 23 -406 196q-100 122 -100 314h184q0 -174 123 -263t291 -89t276 61t107 205q0 111 -96 171q-95 60 -233 87t-276 61t-235 121q-96 87 -96 234q0 209 155 319q156 110 384 110t375 -117
q146 -116 155 -347h-184q-33 299 -363 299q-141 0 -234 -58t-94 -192q-1 -71 51 -119t135 -73t182 -45t199 -49t184 -71q83 -42 134 -125t51 -215t-90 -234q-165 -187 -481 -187h-16l-58 -74l4 -4q20 15 80 15t110 -39t50 -122t-77 -127t-165 -44t-200 39l36 90
q62 -27 118 -27z" />
    <glyph glyph-name="Scedilla" unicode="&#xf6c1;" horiz-adv-x="1327" 
d="M562 -328q134 0 134 64q0 29 -26 46q-27 17 -66 17t-88 -16l-35 57l101 131q-264 23 -406 196q-100 122 -100 314h184q0 -174 123 -263t291 -89t276 61t107 205q0 111 -96 171q-95 60 -233 87t-276 61t-235 121q-96 87 -96 234q0 209 155 319q156 110 384 110t375 -117
q146 -116 155 -347h-184q-33 299 -363 299q-141 0 -234 -58t-94 -192q-1 -71 51 -119t135 -73t182 -45t199 -49t184 -71q83 -42 134 -125t51 -215t-90 -234q-165 -187 -481 -187h-16l-58 -74l4 -4q20 15 80 15t110 -39t50 -122t-77 -127t-165 -44t-200 39l36 90
q62 -27 118 -27z" />
    <glyph glyph-name="scedilla" unicode="&#x15f;" horiz-adv-x="1024" 
d="M416 -328q134 0 135 64q0 29 -27 46q-28 17 -66 17t-87 -16l-35 57l106 140q-45 2 -100 16q-266 63 -279 338h175q4 -109 84 -157t200 -48q256 0 256 158q0 63 -51 103t-128 55q-180 35 -334 87q-77 26 -128 90t-51 160q0 146 119 224t295 78t290 -76q114 -74 125 -256
h-174q-4 63 -43 105q-66 71 -181 72q-247 2 -247 -134q0 -43 29 -72q56 -56 171 -80t169 -37q236 -54 296 -171q28 -54 28 -126q0 -133 -80 -212t-211 -105q-59 -12 -146 -17l-65 -84l4 -4q19 15 79 15t110 -39t50 -122t-76 -127q-77 -44 -166 -44t-200 39l37 90
q61 -27 117 -27z" />
    <glyph glyph-name="scedilla" unicode="&#xf6c2;" horiz-adv-x="1024" 
d="M416 -328q134 0 135 64q0 29 -27 46q-28 17 -66 17t-87 -16l-35 57l106 140q-45 2 -100 16q-266 63 -279 338h175q4 -109 84 -157t200 -48q256 0 256 158q0 63 -51 103t-128 55q-180 35 -334 87q-77 26 -128 90t-51 160q0 146 119 224t295 78t290 -76q114 -74 125 -256
h-174q-4 63 -43 105q-66 71 -181 72q-247 2 -247 -134q0 -43 29 -72q56 -56 171 -80t169 -37q236 -54 296 -171q28 -54 28 -126q0 -133 -80 -212t-211 -105q-59 -12 -146 -17l-65 -84l4 -4q19 15 79 15t110 -39t50 -122t-76 -127q-77 -44 -166 -44t-200 39l37 90
q61 -27 117 -27z" />
    <glyph glyph-name="Scaron" unicode="&#x160;" horiz-adv-x="1327" 
d="M975 1888l-211 -293h-191l-213 293h172l142 -196l143 196h158zM643 1333q-141 0 -234 -58t-94 -192q-1 -71 51 -119t135 -73t182 -45t199 -49t184 -71q83 -42 134 -125t51 -215t-90 -234q-165 -187 -481 -187q-262 0 -433 131t-171 385h184q0 -174 123 -263t291 -89
t276 61t107 205q0 111 -96 171q-95 60 -233 87t-276 61t-235 121q-96 87 -96 234q0 209 155 319q156 110 384 110t376 -117q146 -116 154 -347h-184q-33 299 -363 299z" />
    <glyph glyph-name="scaron" unicode="&#x161;" horiz-adv-x="1024" 
d="M825 1499l-211 -293h-190l-213 293h172l141 -196l144 196h157zM522 129q256 0 256 158q0 63 -51 103t-128 55q-180 35 -334 87q-77 26 -128 90t-51 160q0 146 119 224t295 78t290 -76q114 -74 125 -256h-174q-4 63 -43 105q-66 71 -181 72q-247 2 -247 -134q0 -43 29 -72
q56 -56 171 -80t169 -37q236 -54 296 -171q28 -54 28 -126q-1 -174 -133 -254t-322 -80q-190 -1 -314 87q-123 88 -131 272h175q4 -109 84 -157t200 -48z" />
    <glyph glyph-name="Tcommaaccent" unicode="&#x162;" horiz-adv-x="1175" 
d="M473 -283v181h227v-158q0 -84 -54 -127t-148 -43v72q39 10 58 25q20 15 22 23t2 27h-107zM492 0v1298h-488v164h1170v-164h-488v-1298h-194z" />
    <glyph glyph-name="tcommaaccent" unicode="&#x163;" horiz-adv-x="645" 
d="M266 -283v181h228v-158q0 -84 -54 -127t-149 -43v72q39 10 58 25t21 23t3 27h-107zM373 1376v-317h211v-154h-211v-657q0 -61 24 -78q25 -16 107 -16h80v-154h-133q-141 0 -197 46q-55 46 -55 185v674h-181v154h181v317h174z" />
    <glyph glyph-name="Tcaron" unicode="&#x164;" horiz-adv-x="1175" 
d="M891 1888l-211 -293h-191l-213 293h173l141 -196l143 196h158zM492 0v1298h-488v164h1170v-164h-488v-1298h-194z" />
    <glyph glyph-name="tcaron" unicode="&#x165;" horiz-adv-x="743" 
d="M373 1376v-317h211v-154h-211v-657q0 -61 24 -78q25 -16 107 -16h80v-154h-133q-141 0 -197 46q-55 46 -55 185v674h-181v154h181v317h174zM573 1169l54 293h223l-154 -293h-123z" />
    <glyph glyph-name="Tbar" unicode="&#x166;" horiz-adv-x="1175" 
d="M201 883v112h291v303h-488v164h1170v-164h-488v-303h295v-112h-295v-883h-194v883h-291z" />
    <glyph glyph-name="tbar" unicode="&#x167;" horiz-adv-x="645" 
d="M-2 596v113h201v196h-181v154h181v317h174v-317h211v-154h-211v-196h231v-113h-231v-348q0 -61 24 -78q25 -16 107 -16h80v-154h-133q-141 0 -197 46q-55 46 -55 185v365h-201z" />
    <glyph glyph-name="Utilde" unicode="&#x168;" horiz-adv-x="1478" 
d="M900 1630q-76 0 -167 41q-104 39 -139 39t-56 -20t-40 -66h-107q47 225 217 225q56 0 150 -41t135 -41q67 1 94 91h107q-12 -90 -66 -162q-52 -66 -128 -66zM1327 1462v-934q1 -276 -149 -419t-434 -143t-438 138q-155 139 -154 424v934h194v-934q0 -195 104 -297
t296 -102t289 102t98 297v934h194z" />
    <glyph glyph-name="utilde" unicode="&#x169;" 
d="M728 1241q-76 0 -167 41q-104 39 -139 39q-34 -1 -56 -21t-40 -65h-107q47 225 217 225q56 0 150 -41t135 -41q67 0 94 90h107q-12 -90 -66 -158q-52 -68 -128 -69zM1008 1059v-1059h-164v168h-4q-109 -193 -344 -193q-197 -1 -281 101t-84 286v697h174v-717
q0 -98 57 -156t158 -57q154 0 234 91t80 241v598h174z" />
    <glyph glyph-name="Umacron" unicode="&#x16a;" horiz-adv-x="1478" 
d="M393 1673v113h699v-113h-699zM1327 1462v-934q1 -276 -149 -419t-434 -143t-438 138q-155 139 -154 424v934h194v-934q0 -195 104 -297t296 -102t289 102t98 297v934h194z" />
    <glyph glyph-name="umacron" unicode="&#x16b;" 
d="M229 1284v113h699v-113h-699zM1008 1059v-1059h-164v168h-4q-109 -193 -344 -193q-197 -1 -281 101t-84 286v697h174v-717q0 -98 57 -156t158 -57q154 0 234 91t80 241v598h174z" />
    <glyph glyph-name="Ubreve" unicode="&#x16c;" horiz-adv-x="1478" 
d="M741 1712q82 0 125 41t78 129h105q-23 -133 -107 -208t-217 -75q-274 0 -315 283h102q49 -170 229 -170zM1327 1462v-934q1 -276 -149 -419t-434 -143t-438 138q-155 139 -154 424v934h194v-934q0 -195 104 -297t296 -102t289 102t98 297v934h194z" />
    <glyph glyph-name="ubreve" unicode="&#x16d;" 
d="M582 1323q82 0 125 41t77 129h105q-23 -133 -107 -208t-217 -75q-274 0 -315 283h102q49 -170 230 -170zM1008 1059v-1059h-164v168h-4q-109 -193 -344 -193q-197 -1 -281 101t-84 286v697h174v-717q0 -98 57 -156t158 -57q154 0 234 91t80 241v598h174z" />
    <glyph glyph-name="Uring" unicode="&#x16e;" horiz-adv-x="1478" 
d="M600 1761q0 -59 39 -99t98 -40t99 40q39 40 38 99q0 59 -38 100q-38 40 -98 40q-60 -1 -99 -41t-39 -99zM506 1763q0 94 68 162q69 68 163 68t163 -68t69 -162q0 -93 -69 -161t-163 -68q-95 0 -163 68t-68 161zM1327 1462v-934q1 -276 -149 -419t-434 -143t-438 138
q-155 139 -154 424v934h194v-934q0 -195 104 -297t296 -102t289 102t98 297v934h194z" />
    <glyph glyph-name="uring" unicode="&#x16f;" 
d="M432 1393q0 -59 39 -99t98 -41q59 0 99 40q39 39 39 99t-39 100q-38 40 -98 40t-99 -40t-39 -99zM338 1395q0 93 69 161t163 68t162 -68q69 -68 69 -162t-69 -161q-69 -68 -163 -68q-95 0 -163 68t-68 162zM1008 1059v-1059h-164v168h-4q-109 -193 -344 -193
q-197 -1 -281 101t-84 286v697h174v-717q0 -98 57 -156t158 -57q154 0 234 91t80 241v598h174z" />
    <glyph glyph-name="Uhungarumlaut" unicode="&#x170;" horiz-adv-x="1478" 
d="M508 1595l166 293h215l-246 -293h-135zM827 1595l166 293h215l-245 -293h-136zM1327 1462v-934q1 -276 -149 -419t-434 -143t-438 138q-155 139 -154 424v934h194v-934q0 -195 104 -297t296 -102t289 102t98 297v934h194z" />
    <glyph glyph-name="uhungarumlaut" unicode="&#x171;" 
d="M334 1206l166 293h215l-246 -293h-135zM653 1206l166 293h215l-246 -293h-135zM1008 1059v-1059h-164v168h-4q-109 -193 -344 -193q-197 -1 -281 101t-84 286v697h174v-717q0 -98 57 -156t158 -57q154 0 234 91t80 241v598h174z" />
    <glyph glyph-name="Uogonek" unicode="&#x172;" horiz-adv-x="1478" 
d="M1327 1462v-934q0 -276 -151 -422q-129 -123 -363 -139q-133 -118 -133 -209q0 -34 19 -60t59 -26q78 0 127 62l65 -37q-74 -127 -221 -127q-188 0 -188 168q0 76 108 180q33 29 64 47q-113 2 -215 33q-346 104 -346 530v934h194v-934q0 -195 104 -297t296 -102t289 102
t98 297v934h194z" />
    <glyph glyph-name="uogonek" unicode="&#x173;" 
d="M1008 0h-82q-172 -143 -172 -242q0 -34 19 -60t58 -26q78 0 127 62l66 -37q-74 -127 -221 -127q-188 0 -189 168q0 35 30 86q56 96 200 176v168h-4q-109 -193 -344 -193q-197 -1 -281 101t-84 286v697h174v-717q0 -98 57 -156t158 -57q154 0 234 91t80 241v598h174v-1059
z" />
    <glyph glyph-name="Wcircumflex" unicode="&#x174;" horiz-adv-x="1896" 
d="M641 1595l211 293h190l213 -293h-172l-141 197l-143 -197h-158zM1872 1462l-391 -1462h-203l-334 1229h-4l-338 -1229h-203l-374 1462h198l287 -1216h4l328 1216h211l323 -1216h4l297 1216h195z" />
    <glyph glyph-name="wcircumflex" unicode="&#x175;" horiz-adv-x="1552" 
d="M477 1206l211 293h191l213 -293h-172l-142 197l-143 -197h-158zM1518 1059l-338 -1059h-185l-215 842h-4l-213 -842h-188l-340 1059h192l240 -866h4l213 866h190l222 -866h4l237 866h181z" />
    <glyph glyph-name="Ycircumflex" unicode="&#x176;" horiz-adv-x="1327" 
d="M367 1595l211 293h190l213 -293h-172l-141 197l-144 -197h-157zM764 0h-195v598l-565 864h232l438 -696l428 696h221l-559 -864v-598z" />
    <glyph glyph-name="ycircumflex" unicode="&#x177;" horiz-adv-x="1024" 
d="M217 1206l211 293h190l213 -293h-172l-141 197l-143 -197h-158zM1008 1059l-461 -1200q-63 -158 -128 -220q-65 -63 -158 -63t-142 18v160q78 -25 102 -24q94 0 144 96l71 180l-420 1053h197l309 -866h4l297 866h185z" />
    <glyph glyph-name="Ydieresis" unicode="&#x178;" horiz-adv-x="1327" 
d="M772 1622v213h184v-213h-184zM387 1622v213h184v-213h-184zM764 0h-195v598l-565 864h232l438 -696l428 696h221l-559 -864v-598z" />
    <glyph glyph-name="Zacute" unicode="&#x179;" horiz-adv-x="1251" 
d="M555 1595l176 293h223l-268 -293h-131zM45 0v164l909 1134h-839v164h1069v-164l-908 -1134h932v-164h-1163z" />
    <glyph glyph-name="zacute" unicode="&#x17a;" horiz-adv-x="983" 
d="M420 1206l176 293h223l-268 -293h-131zM45 0v133l639 772h-598v154h823v-119l-647 -786h676v-154h-893z" />
    <glyph glyph-name="Zdotaccent" unicode="&#x17b;" horiz-adv-x="1251" 
d="M735 1839v-213h-184v213h184zM45 0v164l909 1134h-839v164h1069v-164l-908 -1134h932v-164h-1163z" />
    <glyph glyph-name="zdotaccent" unicode="&#x17c;" horiz-adv-x="983" 
d="M594 1450v-213h-184v213h184zM45 0v133l639 772h-598v154h823v-119l-647 -786h676v-154h-893z" />
    <glyph glyph-name="Zcaron" unicode="&#x17d;" horiz-adv-x="1251" 
d="M948 1888l-211 -293h-190l-213 293h172l141 -196l144 196h157zM45 0v164l909 1134h-839v164h1069v-164l-908 -1134h932v-164h-1163z" />
    <glyph glyph-name="zcaron" unicode="&#x17e;" horiz-adv-x="983" 
d="M801 1499l-211 -293h-191l-213 293h172l142 -196l143 196h158zM45 0v133l639 772h-598v154h823v-119l-647 -786h676v-154h-893z" />
    <glyph glyph-name="florin" unicode="&#x192;" 
d="M858 1309q-102 0 -127 -107l-63 -282h209l-29 -140h-205l-113 -637q-49 -277 -133 -379t-256 -102h-135l29 154q162 0 211 34t73 175l144 755h-189l27 140h186l54 278q25 121 106 193q82 72 209 71h152l-29 -153h-121z" />
    <glyph glyph-name="Scommaaccent" unicode="&#x218;" horiz-adv-x="1327" 
d="M553 -283v181h227v-158q0 -84 -54 -127t-148 -43v72q39 10 58 25t21 23t2 27h-106zM643 1333q-141 0 -234 -58t-94 -192q-1 -71 51 -119t135 -73t182 -45t199 -49t184 -71q83 -42 134 -125t51 -215t-90 -234q-165 -187 -481 -187q-262 0 -433 131t-171 385h184
q0 -174 123 -263t291 -89t276 61t107 205q0 111 -96 171q-95 60 -233 87t-276 61t-235 121q-96 87 -96 234q0 209 155 319q156 110 384 110t376 -117q146 -116 154 -347h-184q-33 299 -363 299z" />
    <glyph glyph-name="scommaaccent" unicode="&#x219;" horiz-adv-x="1024" 
d="M401 -283v181h228v-158q-1 -84 -55 -127t-148 -43v72q39 10 58 25q20 15 22 23t2 27h-107zM522 129q256 0 256 158q0 63 -51 103t-128 55q-180 35 -334 87q-77 26 -128 90t-51 160q0 146 119 224t295 78t290 -76q114 -74 125 -256h-174q-4 63 -43 105q-66 71 -181 72
q-247 2 -247 -134q0 -43 29 -72q56 -56 171 -80t169 -37q236 -54 296 -171q28 -54 28 -126q-1 -174 -133 -254t-322 -80q-190 -1 -314 87q-123 88 -131 272h175q4 -109 84 -157t200 -48z" />
    <glyph glyph-name="uni021A" unicode="&#x21a;" horiz-adv-x="1175" 
d="M473 -283v181h227v-158q0 -84 -54 -127t-148 -43v72q39 10 58 25q20 15 22 23t2 27h-107zM492 0v1298h-488v164h1170v-164h-488v-1298h-194z" />
    <glyph glyph-name="uni021B" unicode="&#x21b;" horiz-adv-x="645" 
d="M266 -283v181h228v-158q0 -84 -54 -127t-149 -43v72q39 10 58 25t21 23t3 27h-107zM373 1376v-317h211v-154h-211v-657q0 -61 24 -78q25 -16 107 -16h80v-154h-133q-141 0 -197 46q-55 46 -55 185v674h-181v154h181v317h174z" />
    <glyph glyph-name="circumflex" unicode="&#x2c6;" horiz-adv-x="454" 
d="M-80 1206l211 293h191l213 -293h-173l-141 197l-143 -197h-158z" />
    <glyph glyph-name="caron" unicode="&#x2c7;" horiz-adv-x="454" 
d="M535 1499l-211 -293h-191l-213 293h172l141 -196l144 196h158z" />
    <glyph glyph-name="uni02C9" unicode="&#x2c9;" horiz-adv-x="454" 
d="M-121 1284v113h699v-113h-699z" />
    <glyph glyph-name="breve" unicode="&#x2d8;" horiz-adv-x="454" 
d="M240 1323q82 0 125 41t77 129h105q-23 -133 -107 -208t-217 -75q-274 0 -315 283h102q49 -170 230 -170z" />
    <glyph glyph-name="dotaccent" unicode="&#x2d9;" horiz-adv-x="454" 
d="M319 1450v-213h-184v213h184z" />
    <glyph glyph-name="ring" unicode="&#x2da;" horiz-adv-x="454" 
d="M90 1393q0 -59 39 -99t98 -41q59 0 99 40q39 39 39 99t-39 100q-38 40 -98 40t-99 -40t-39 -99zM-4 1395q0 93 69 161t163 68t162 -68q69 -68 69 -162t-69 -161q-69 -68 -163 -68q-95 0 -163 68t-68 162z" />
    <glyph glyph-name="ogonek" unicode="&#x2db;" horiz-adv-x="454" 
d="M295 -242q0 -34 19 -60t59 -26q78 0 127 62l65 -37q-74 -127 -221 -127q-188 0 -188 168q0 38 30 87q58 96 199 175h82q-172 -143 -172 -242z" />
    <glyph glyph-name="tilde" unicode="&#x2dc;" horiz-adv-x="454" 
d="M390 1241q-76 0 -167 41q-104 39 -139 39q-35 -1 -56 -21t-40 -65h-107q47 225 217 225q56 0 150 -41t135 -41q67 0 94 90h107q-12 -90 -66 -158q-52 -68 -128 -69z" />
    <glyph glyph-name="hungarumlaut" unicode="&#x2dd;" horiz-adv-x="454" 
d="M-98 1206l166 293h215l-246 -293h-135zM221 1206l166 293h215l-246 -293h-135z" />
    <glyph glyph-name="uni0394" unicode="&#x394;" horiz-adv-x="1380" 
d="M1356 0h-1329l571 1458h170zM1126 147l-444 1139l-436 -1139h880z" />
    <glyph glyph-name="uni03A9" unicode="&#x3a9;" horiz-adv-x="1531" 
d="M1409 0h-524v375q174 35 267 159t93 322t-139 335q-139 138 -351 138q-211 0 -353 -139q-142 -138 -142 -334t95 -324t268 -157v-375h-527v137h396v148q-184 51 -290 207q-105 156 -106 354q0 272 193 451t466 179t463 -176q190 -178 191 -450q0 -204 -103 -358
t-290 -207v-148h393v-137z" />
    <glyph glyph-name="uni03BC" unicode="&#x3bc;" 
d="M1008 1059v-1059h-164v168h-4q-109 -193 -344 -193q-137 0 -187 78h-4v-459h-174v1465h174v-717q0 -98 57 -156t158 -57q154 0 234 91t80 241v598h174z" />
    <glyph glyph-name="pi" unicode="&#x3c0;" horiz-adv-x="1167" 
d="M983 -12q-124 0 -152 69t-28 176v607h-504v-840h-154v840h-141v141h1108v-141h-156v-613q0 -53 14 -81t61 -28q46 0 89 21v-116q-74 -35 -137 -35z" />
    <glyph glyph-name="endash" unicode="&#x2013;" horiz-adv-x="1024" 
d="M0 487v164h1024v-164h-1024z" />
    <glyph glyph-name="emdash" unicode="&#x2014;" horiz-adv-x="2048" 
d="M266 487v164h1516v-164h-1516z" />
    <glyph glyph-name="quoteleft" unicode="&#x2018;" horiz-adv-x="569" 
d="M399 1161v-227h-227v227q0 131 57 216t168 85v-102q-63 0 -91 -58t-27 -141h120z" />
    <glyph glyph-name="quoteright" unicode="&#x2019;" horiz-adv-x="569" 
d="M170 1235v227h227v-227q0 -131 -57 -216t-168 -85v102q63 0 91 58t28 141h-121z" />
    <glyph glyph-name="quotesinglbase" unicode="&#x201a;" horiz-adv-x="569" 
d="M170 0v227h227v-227q0 -131 -57 -216t-168 -85v102q63 1 91 59t28 140h-121z" />
    <glyph glyph-name="quotedblleft" unicode="&#x201c;" horiz-adv-x="872" 
d="M737 1161v-227h-227v227q0 131 57 216t168 85v-102q-63 0 -91 -58t-28 -141h121zM362 1161v-227h-227v227q-1 131 57 216t168 85v-102q-63 0 -91 -58t-27 -141h120z" />
    <glyph glyph-name="quotedblright" unicode="&#x201d;" horiz-adv-x="872" 
d="M510 1235v227h227v-227q0 -131 -57 -216t-168 -85v102q63 0 91 58t28 141h-121zM135 1235v227h227v-227q0 -131 -57 -216t-168 -85v102q63 0 91 58t28 141h-121z" />
    <glyph glyph-name="quotedblbase" unicode="&#x201e;" horiz-adv-x="872" 
d="M135 0v227h227v-227q0 -131 -57 -216t-168 -85v102q63 1 91 59t28 140h-121zM510 0v227h227v-227q0 -131 -57 -216t-168 -85v102q63 1 91 59t28 140h-121z" />
    <glyph glyph-name="dagger" unicode="&#x2020;" 
d="M483 -317v1222h-397v154h397v403h164v-403h406v-154h-406v-1222h-164z" />
    <glyph glyph-name="daggerdbl" unicode="&#x2021;" 
d="M483 -317v403h-397v154h397v665h-397v154h397v403h164v-403h406v-154h-406v-665h406v-154h-406v-403h-164z" />
    <glyph glyph-name="bullet" unicode="&#x2022;" horiz-adv-x="1024" 
d="M147 731q1 152 107 258q106 107 258 107t260 -106t107 -259q0 -151 -108 -259q-107 -108 -259 -108t-258 108q-106 107 -107 259z" />
    <glyph glyph-name="ellipsis" unicode="&#x2026;" horiz-adv-x="2048" 
d="M227 0v227h228v-227h-228zM909 0v227h228v-227h-228zM1591 0v227h228v-227h-228z" />
    <glyph glyph-name="perthousand" unicode="&#x2030;" horiz-adv-x="2351" 
d="M750 1106q0 -158 -79 -255t-228 -97t-223 93t-73 252q0 159 73 256t229 97q157 0 229 -94t72 -252zM596 1072q0 269 -140 268q-83 -2 -119 -72t-36 -166q0 -236 148 -236q83 0 115 70t32 136zM184 -45l1102 1524h174l-1100 -1524h-176zM1497 328q0 -158 -79 -255
q-80 -97 -228 -97t-222 92q-74 93 -73 252q0 158 73 256q72 98 228 98t228 -94t73 -252zM1049 324q0 -236 147 -236q82 0 115 70q65 138 7 316q-13 40 -43 64t-71 23q-84 -1 -120 -71t-35 -166zM2204 328q0 -158 -79 -255t-227 -97t-222 92q-74 93 -74 252t72 257
q73 97 229 97q157 0 229 -94t72 -252zM1755 324q0 -236 148 -236q83 0 115 70t32 136q0 270 -139 267q-84 -1 -120 -71t-36 -166z" />
    <glyph glyph-name="guilsinglleft" unicode="&#x2039;" horiz-adv-x="530" 
d="M414 233l-312 246v180l312 246v-176l-205 -160l205 -159v-177z" />
    <glyph glyph-name="guilsinglright" unicode="&#x203a;" horiz-adv-x="530" 
d="M117 905l311 -246v-180l-311 -246v177l205 159l-205 160v176z" />
    <glyph glyph-name="fraction" unicode="&#x2044;" horiz-adv-x="342" 
d="M-340 -57l891 1542h131l-891 -1542h-131z" />
    <glyph glyph-name="afii61289" unicode="&#x2113;" horiz-adv-x="1024" 
d="M696 1204q0 78 -30 126q-31 48 -80 48t-86 -61t-37 -176v-455q233 270 233 518zM598 -29q-131 0 -203 68t-71 194v234l-119 -127h-4l-54 76l177 172v530q0 166 74 262t182 96t170 -70q62 -71 63 -192q0 -291 -350 -651v-307q0 -96 45 -137t108 -41q94 0 181 78h4l49 -72
q-121 -113 -252 -113z" />
    <glyph glyph-name="trademark" unicode="&#x2122;" horiz-adv-x="2027" 
d="M799 1462v-112h-264v-732h-140v732h-264v112h668zM1898 1462v-844h-139v705h-4l-276 -705h-88l-277 705h-4v-705h-139v844h215l252 -641l248 641h212z" />
    <glyph glyph-name="Omega" unicode="&#x2126;" horiz-adv-x="1531" 
d="M1409 0h-524v375q174 35 267 159t93 322t-139 335q-139 138 -351 138q-211 0 -353 -139q-142 -138 -142 -334t95 -324t268 -157v-375h-527v137h396v148q-184 51 -290 207q-105 156 -106 354q0 272 193 451t466 179t463 -176q190 -178 191 -450q0 -204 -103 -358
t-290 -207v-148h393v-137z" />
    <glyph glyph-name="estimated" unicode="&#x212e;" horiz-adv-x="1228" 
d="M322 604h596v297q-130 123 -302 123t-294 -123v-297zM322 530v-370q121 -121 296 -121q250 0 396 246l71 -43q-94 -147 -200 -212t-267 -65q-236 0 -382 162q-146 163 -146 405t146 403t382 161t382 -158t149 -408h-827z" />
    <glyph glyph-name="partialdiff" unicode="&#x2202;" horiz-adv-x="1046" 
d="M446 1477q117 0 208 -45q92 -45 148 -118q160 -206 159 -573q1 -223 -41 -367t-92 -220t-138 -127t-205 -52q-188 -1 -303 135q-114 136 -114 324t111 315q113 125 303 125t323 -155l2 92q0 185 -75 349q-38 83 -110 135q-74 53 -176 53t-227 -97l-86 103
q139 123 313 123zM219 430q0 -131 72 -231q72 -101 188 -101t190 84q128 147 128 391q-129 174 -303 175q-129 0 -202 -94t-73 -224z" />
    <glyph glyph-name="Delta" unicode="&#x2206;" horiz-adv-x="1380" 
d="M1356 0h-1329l571 1458h170zM1126 147l-444 1139l-436 -1139h880z" />
    <glyph glyph-name="product" unicode="&#x220f;" horiz-adv-x="1472" 
d="M1331 -438h-160v1900h-872v-1900h-160v2048h1192v-2048z" />
    <glyph glyph-name="summation" unicode="&#x2211;" horiz-adv-x="1259" 
d="M1206 -438h-1155v131l660 901l-631 885v131h1102v-148h-895l616 -868l-653 -885h956v-147z" />
    <glyph glyph-name="minus" unicode="&#x2212;" horiz-adv-x="1228" 
d="M98 449v139h1032v-139h-1032z" />
    <glyph glyph-name="uni2215" unicode="&#x2215;" horiz-adv-x="342" 
d="M-340 -57l891 1542h131l-891 -1542h-131z" />
    <glyph glyph-name="uni2219" unicode="&#x2219;" horiz-adv-x="569" 
d="M154 637q0 53 39 92t92 39t92 -39t39 -90t-40 -92t-91 -41t-91 39t-40 92z" />
    <glyph glyph-name="radical" unicode="&#x221a;" horiz-adv-x="1032" 
d="M1053 1610l-432 -2048h-154l-332 684l-96 -45l-57 123l229 106l309 -649l377 1829h156z" />
    <glyph glyph-name="infinity" unicode="&#x221e;" horiz-adv-x="1554" 
d="M1165 840q135 0 219 -90t84 -229q0 -138 -82 -229t-219 -91q-178 0 -389 223q-50 -50 -117 -104t-89 -64t-64 -32t-121 -21q-135 0 -218 88t-83 224t81 228t216 93q78 0 157 -41q80 -41 120 -78t118 -115l36 36q30 30 39 38t37 35t41 35t40 28t65 37q65 29 129 29z
M1182 340q68 0 110 50t43 129q0 79 -44 130t-129 51t-172 -75t-124 -111q66 -61 95 -86q29 -24 91 -56t130 -32zM219 514q0 -78 45 -126t125 -48q127 0 301 174q-59 55 -92 83q-32 28 -98 65q-66 36 -130 36t-107 -53q-44 -53 -44 -131z" />
    <glyph glyph-name="integral" unicode="&#x222b;" horiz-adv-x="1134" 
d="M860 1506q0 -46 -24 -68t-62 -21q-38 0 -70 44t-46 44q-42 0 -58 -103q-4 -28 -4 -60v-55l2 -70l2 -80v-1047q0 -244 -31 -342q-55 -184 -227 -184q-53 0 -97 28t-44 67q-1 41 23 63t56 22t63 -43q30 -43 40 -43q59 0 59 237v48l-2 24v1059l-2 175q0 124 14 176
q33 128 89 180q56 51 138 52q81 1 131 -28t50 -75z" />
    <glyph glyph-name="approxequal" unicode="&#x2248;" horiz-adv-x="1214" 
d="M896 551q-107 0 -306 73q-199 72 -261 72q-61 0 -103 -46t-54 -111h-104q14 127 78 215q65 88 186 88q90 0 286 -73t275 -73q123 0 154 154h102q-14 -129 -80 -214t-173 -85zM897 182q-106 0 -307 74t-264 74q-62 0 -104 -47t-50 -113h-106q47 303 264 303q92 0 286 -73
t275 -72q122 -1 153 151h103q-14 -129 -79 -213t-171 -84z" />
    <glyph glyph-name="notequal" unicode="&#x2260;" horiz-adv-x="1214" 
d="M1126 233h-587l-156 -299l-127 66l121 233h-289v148h365l137 260h-502v145h580l157 304l127 -66l-125 -238h299v-145h-374l-138 -260h512v-148z" />
    <glyph glyph-name="lessequal" unicode="&#x2264;" horiz-adv-x="1214" 
d="M1126 168l-1038 377v153l1038 383v-159l-835 -299l835 -297v-158zM1126 -61h-1038v147h1038v-147z" />
    <glyph glyph-name="greaterequal" unicode="&#x2265;" horiz-adv-x="1214" 
d="M1126 545l-1038 -377v158l836 297l-836 299v159l1038 -383v-153zM1126 -61h-1038v147h1038v-147z" />
    <glyph glyph-name="lozenge" unicode="&#x25ca;" horiz-adv-x="1214" 
d="M1032 729l-352 -801h-148l-350 801l350 801h148zM877 729l-271 645l-268 -645l268 -645z" />
    <glyph glyph-name="commaaccent" unicode="&#xf004;" horiz-adv-x="569" 
d="M166 -283v181h227v-158q0 -84 -54 -127t-149 -43v72q39 10 59 25q19 15 21 23t2 27h-106z" />
    <glyph glyph-name="commaaccent" unicode="&#xf6c3;" horiz-adv-x="569" 
d="M166 -283v181h227v-158q0 -84 -54 -127t-149 -43v72q39 10 59 25q19 15 21 23t2 27h-106z" />
    <glyph glyph-name="dotlessj" unicode="&#xf6be;" horiz-adv-x="454" 
d="M315 1059v-1194q0 -270 -254 -271q-49 0 -90 9v149q25 -4 35 -4h37q57 0 78 32q20 32 20 114v1165h174z" />
    <glyph glyph-name="dotlessj" unicode="&#xfb0f;" horiz-adv-x="454" 
d="M315 1059v-1194q0 -270 -254 -271q-49 0 -90 9v149q25 -4 35 -4h37q57 0 78 32q20 32 20 114v1165h174z" />
    <glyph glyph-name="uniF8FF" unicode="&#xf8ff;" horiz-adv-x="1048" 
d="M1049 1470v-1470h-1049v1470h1049zM946 102v1264h-844v-1264h844zM524 1145q-145 0 -168 -195l-102 17q14 141 88 211t186 70t185 -74q72 -74 71 -195q0 -70 -26 -123t-103 -122q-76 -68 -88 -108t-12 -147h-94l-4 35q1 115 29 169t92 118q63 59 82 94q20 35 20 93
t-46 107q-46 50 -110 50zM455 240v137h114v-137h-114z" />
    <glyph glyph-name="commaaccent.alt" horiz-adv-x="569" 
d="M397 1462v-180h-227v158q0 84 54 127t149 43v-72q-39 -10 -59 -26t-21 -23q-2 -8 -2 -27h106z" />
    <glyph glyph-name="caron.alt" horiz-adv-x="454" 
d="M164 1169l53 293h223l-153 -293h-123z" />
    <glyph glyph-name="grave.cap" horiz-adv-x="454" 
d="M221 1595l-268 293h223l176 -293h-131z" />
    <glyph glyph-name="acute.cap" horiz-adv-x="454" 
d="M102 1595l177 293h223l-269 -293h-131z" />
    <glyph glyph-name="circumflex.cap" horiz-adv-x="454" 
d="M-80 1595l211 293h191l213 -293h-173l-141 197l-143 -197h-158z" />
    <glyph glyph-name="caron.cap" horiz-adv-x="454" 
d="M535 1888l-211 -293h-191l-213 293h172l141 -196l144 196h158z" />
    <glyph glyph-name="tilde.cap" horiz-adv-x="454" 
d="M390 1630q-76 0 -167 41q-104 39 -139 39t-56 -20t-40 -66h-107q47 225 217 225q56 0 150 -41t135 -41q67 1 94 91h107q-12 -90 -66 -162q-52 -66 -128 -66z" />
    <glyph glyph-name="dieresis.cap" horiz-adv-x="454" 
d="M328 1624v213h184v-213h-184zM-57 1624v213h184v-213h-184z" />
    <glyph glyph-name="macron.cap" horiz-adv-x="454" 
d="M-121 1673v113h699v-113h-699z" />
    <glyph glyph-name="breve.cap" horiz-adv-x="454" 
d="M240 1712q82 0 125 41t77 129h105q-23 -133 -107 -208t-217 -75q-274 0 -315 283h102q49 -170 230 -170z" />
    <glyph glyph-name="ring.cap" horiz-adv-x="454" 
d="M90 1761q0 -59 39 -99t98 -40t99 40q39 40 39 99t-39 99q-38 40 -98 41q-60 -1 -99 -41t-39 -99zM-4 1763q0 94 69 162t163 68t162 -68q69 -68 69 -162q0 -93 -69 -161t-163 -68q-95 0 -163 68t-68 161z" />
    <glyph glyph-name="hungarumlaut.cap" horiz-adv-x="454" 
d="M-98 1595l166 293h215l-246 -293h-135zM221 1595l166 293h215l-246 -293h-135z" />
    <glyph glyph-name="dotaccent.cap" horiz-adv-x="454" 
d="M319 1837v-213h-184v213h184z" />
  </font>
</defs>
</svg>
